<?xml version="1.0" encoding="UTF-8"?>
<!-- Generator: visioncortex VTracer 0.6.3 -->
<svg version="1.1" xmlns="http://www.w3.org/2000/svg" width="1196" height="1280">
<path d="M0 0 C394.68 0 789.36 0 1196 0 C1196 422.4 1196 844.8 1196 1280 C801.32 1280 406.64 1280 0 1280 C0 857.6 0 435.2 0 0 Z " fill="#FCFCFC" transform="translate(0,0)"/>
<path d="M0 0 C1.1 -0 1.1 -0 2.21 -0.01 C3.76 -0.02 5.3 -0.02 6.84 -0.02 C9.18 -0.02 11.52 -0.04 13.86 -0.06 C15.36 -0.06 16.87 -0.06 18.38 -0.06 C19.06 -0.07 19.75 -0.08 20.47 -0.08 C25.47 -0.06 29.68 0.83 34.45 2.17 C35.23 2.34 36.01 2.52 36.81 2.7 C40.92 3.62 43.9 4.98 47.45 7.17 C49.78 7.9 52.09 8.55 54.45 9.17 C67.3 12.56 67.3 12.56 72.45 18.17 C75.9 18.94 78.93 19.17 82.45 19.17 C82.45 19.83 82.45 20.49 82.45 21.17 C83.44 21.17 84.43 21.17 85.45 21.17 C86.47 22.82 87.47 24.49 88.45 26.17 C90.47 27.86 90.47 27.86 92.83 29.29 C97.12 32.16 101.05 35.25 104.95 38.61 C109.55 42.56 114.21 46.41 118.96 50.18 C121.82 52.46 124.67 54.74 127.52 57.04 C128.43 57.78 129.35 58.52 130.3 59.29 C132.51 61.21 133.17 62.6 134.45 65.17 C135.05 65.45 135.64 65.74 136.25 66.03 C138.95 67.42 140.61 69.16 142.7 71.36 C146.22 74.96 149.85 78.33 153.67 81.61 C156.83 84.37 159.72 87.2 162.25 90.54 C164.59 93.33 167.04 95.42 169.89 97.67 C173.66 100.65 177.08 103.75 180.45 107.17 C182.11 108.68 183.78 110.18 185.45 111.67 C194.96 120.18 194.96 120.18 196.45 123.17 C197.44 123.5 198.43 123.83 199.45 124.17 C199.45 124.83 199.45 125.49 199.45 126.17 C199.99 126.22 200.52 126.27 201.07 126.33 C204.6 127.57 206.93 130.07 209.58 132.61 C210.12 133.11 210.65 133.61 211.21 134.13 C213.32 136.11 215.4 138.12 217.45 140.17 C218.66 141.13 218.66 141.13 219.89 142.11 C224.96 146.19 224.96 146.19 226.45 149.17 C227.24 149.46 228.02 149.75 228.83 150.04 C231.83 151.33 232.67 152.49 234.45 155.17 C234.99 155.7 235.53 156.24 236.08 156.79 C237.45 158.17 237.45 158.17 238.45 160.17 C239.44 160.5 240.43 160.83 241.45 161.17 C243.14 162.81 244.81 164.48 246.45 166.17 C248.32 167.71 250.2 169.24 252.1 170.74 C253.45 172.17 253.45 172.17 253.45 175.17 C254.26 175.51 254.26 175.51 255.08 175.86 C260.95 179.1 265.56 184.15 270.16 188.95 C274.78 193.69 279.69 197.87 284.86 202.01 C287.65 204.33 290.13 206.81 292.64 209.41 C295.62 212.29 298.91 214.77 302.17 217.33 C304.8 219.44 307.13 221.72 309.45 224.17 C310.62 225.34 311.78 226.5 312.95 227.67 C314.92 229.64 316.88 231.61 318.82 233.6 C321.44 236.16 324.16 238.45 327.02 240.73 C329.64 242.83 332.18 244.89 334.55 247.27 C336.36 249.08 338.17 250.47 340.27 251.92 C344.02 254.67 346.94 257.76 349.91 261.34 C351.35 263.04 352.86 264.61 354.45 266.17 C354.89 266.64 355.32 267.12 355.77 267.61 C357.54 269.35 357.54 269.35 360.33 270.98 C363.15 272.96 364.94 274.85 367.05 277.54 C369.25 280.09 371.86 282.15 374.43 284.32 C376.43 286.14 377.98 288.04 379.64 290.17 C384.65 296.12 392.78 300.69 400.45 302.17 C400.45 302.83 400.45 303.49 400.45 304.17 C401.01 304.29 401.57 304.42 402.14 304.54 C404.67 305.23 407.03 306.16 409.45 307.17 C409.45 307.83 409.45 308.49 409.45 309.17 C410.77 309.5 412.09 309.83 413.45 310.17 C413.45 310.83 413.45 311.49 413.45 312.17 C415.1 312.5 416.75 312.83 418.45 313.17 C418.78 314.16 419.11 315.15 419.45 316.17 C420.03 315.96 420.61 315.76 421.2 315.54 C423.97 315.08 425.1 315.74 427.45 317.17 C427.45 317.83 427.45 318.49 427.45 319.17 C428.32 319.57 428.32 319.57 429.2 319.98 C431.45 321.17 431.45 321.17 433.45 322.73 C435.5 324.2 437 324.73 439.45 325.17 C439.45 325.83 439.45 326.49 439.45 327.17 C440.44 326.84 441.43 326.51 442.45 326.17 C444.79 328.5 447.12 330.83 449.45 333.17 C451.44 333.57 453.44 333.91 455.45 334.17 C455.45 335.16 455.45 336.15 455.45 337.17 C456.34 336.92 457.23 336.67 458.14 336.42 C461.45 336.17 461.45 336.17 464.27 337.98 C466.45 340.17 466.45 340.17 467.45 342.17 C469.76 343.22 472.1 344.22 474.45 345.17 C475.11 345.5 475.77 345.83 476.45 346.17 C476.45 346.83 476.45 347.49 476.45 348.17 C477.44 348.17 478.43 348.17 479.45 348.17 C479.45 348.83 479.45 349.49 479.45 350.17 C480.11 350.35 480.76 350.53 481.43 350.72 C491.55 353.63 491.55 353.63 495.45 356.17 C495.78 357.03 496.11 357.9 496.45 358.79 C496.78 359.58 497.11 360.36 497.45 361.17 C500.51 362.07 500.51 362.07 503.45 362.17 C503.45 362.83 503.45 363.49 503.45 364.17 C504.5 364.06 505.56 363.96 506.64 363.86 C510.45 364.17 510.45 364.17 513.39 366.54 C515.45 369.17 515.45 369.17 515.45 371.17 C518.42 372.16 521.39 373.15 524.45 374.17 C524.45 374.83 524.45 375.49 524.45 376.17 C525.44 376.17 526.43 376.17 527.45 376.17 C527.45 376.83 527.45 377.49 527.45 378.17 C528.11 378.25 528.77 378.33 529.45 378.42 C533.44 379.42 536.84 381.24 540.45 383.17 C540.45 383.83 540.45 384.49 540.45 385.17 C541.77 385.5 543.09 385.83 544.45 386.17 C544.45 386.83 544.45 387.49 544.45 388.17 C545.09 388.25 545.73 388.33 546.39 388.42 C550.66 389.46 554.71 390.82 558.45 393.17 C559.52 395.92 559.52 395.92 559.45 398.17 C560.36 398.29 561.27 398.42 562.2 398.54 C565.45 399.17 565.45 399.17 567.45 400.23 C569.53 401.42 569.53 401.42 572.39 400.86 C573.4 400.96 574.41 401.06 575.45 401.17 C576.6 402.61 576.6 402.61 577.7 404.48 C580.38 408.82 583.34 409.28 588.12 410.44 C591.44 411.48 593.03 413.69 595.45 416.17 C598.45 417.82 601.5 419.28 604.59 420.75 C607.45 422.17 607.45 422.17 610.64 424.42 C613.42 426.15 614.87 426.49 618.02 426.98 C622.06 427.72 622.06 427.72 623.82 429.74 C624.58 430.99 625.33 432.24 626.07 433.49 C628.31 436.2 631.14 436.68 634.46 437.46 C636.45 438.17 636.45 438.17 638.45 441.17 C640.72 442.51 640.72 442.51 643.33 443.67 C646.7 445.24 649.49 446.94 652.45 449.17 C653.44 449.5 654.43 449.83 655.45 450.17 C655.45 450.83 655.45 451.49 655.45 452.17 C656.13 452.44 656.81 452.7 657.52 452.98 C658.49 453.37 659.45 453.76 660.45 454.17 C661.59 454.58 662.72 454.99 663.89 455.42 C667.51 457.2 669.3 458.91 671.96 461.8 C674.18 463.83 676.58 464.48 679.45 465.17 C679.45 465.83 679.45 466.49 679.45 467.17 C680.44 467.17 681.43 467.17 682.45 467.17 C682.45 467.83 682.45 468.49 682.45 469.17 C683.11 469.17 683.77 469.17 684.45 469.17 C684.99 469.72 685.53 470.28 686.08 470.86 C688.11 472.84 689.57 473.86 691.98 475.21 C697.51 478.62 701.85 483.13 706.39 487.73 C707.25 488.58 708.11 489.43 709 490.31 C709.82 491.13 710.64 491.95 711.48 492.8 C712.22 493.54 712.96 494.28 713.72 495.05 C715.46 497.17 716.06 498.49 716.45 501.17 C717.11 501.17 717.77 501.17 718.45 501.17 C718.45 502.16 718.45 503.15 718.45 504.17 C719.11 504.17 719.77 504.17 720.45 504.17 C720.45 505.16 720.45 506.15 720.45 507.17 C721.11 507.17 721.77 507.17 722.45 507.17 C722.51 508.44 722.51 508.44 722.58 509.73 C723.73 514.25 726.03 517.05 729.45 520.17 C730.16 520.47 730.86 520.78 731.59 521.1 C733.45 522.17 733.45 522.17 734.14 524.13 C734.3 525.32 734.3 525.32 734.45 526.54 C735.29 531.75 736.81 536.53 738.55 541.5 C739.3 543.73 739.89 545.89 740.45 548.17 C740.7 549.07 740.94 549.97 741.19 550.9 C743.31 559.2 743.94 566.99 743.89 575.54 C743.91 576.76 743.93 577.98 743.95 579.23 C743.95 586.28 743.35 590.34 739.45 596.17 C738.92 599 738.92 599 738.95 601.73 C738.68 606.73 737.32 609.04 734.45 613.17 C734.07 615.38 734.07 615.38 733.95 617.73 C733.57 623.01 731.39 625.47 727.45 628.92 C725.52 631.09 724.74 632.59 723.64 635.23 C719.46 645.19 713.15 653.19 705.52 660.73 C704.69 661.55 703.86 662.38 703.01 663.22 C696.28 669.74 689.23 674.54 681.13 679.15 C677.81 681.16 674.92 683.69 671.95 686.16 C664.94 691.81 657.69 696.97 649.3 700.34 C646.66 701.52 644.66 703.31 642.45 705.17 C639.25 707.25 636.22 708.93 632.57 710.07 C629.33 711.21 626.87 712.65 624.02 714.54 C612.33 722.17 612.33 722.17 609.45 722.17 C609.45 722.83 609.45 723.49 609.45 724.17 C608.24 724.75 608.24 724.75 607 725.34 C605.94 725.86 604.87 726.38 603.77 726.92 C602.18 727.68 602.18 727.68 600.57 728.46 C597.55 730.11 595.1 732 592.45 734.17 C590.14 734.92 590.14 734.92 588.45 735.17 C588.45 735.83 588.45 736.49 588.45 737.17 C587.36 737.44 586.27 737.7 585.14 737.98 C581.61 739.12 580.75 739.56 578.45 742.17 C575.69 743.99 572.87 745.46 569.89 746.92 C562.48 750.57 555.45 754.95 548.39 759.23 C544.86 761.36 541.28 763.35 537.64 765.29 C533.91 767.3 530.68 769.41 527.45 772.17 C524.71 773.97 522.13 775.3 519.08 776.54 C516.27 777.8 514.5 778.79 512.14 780.61 C509.37 782.69 506.7 783.95 503.45 785.17 C499.5 786.65 496.48 788.4 493.15 790.95 C490.8 792.63 488.3 793.82 485.71 795.07 C482.99 796.4 480.31 797.8 477.64 799.23 C476.73 799.72 475.81 800.2 474.87 800.7 C472.67 802.04 471.22 803.34 469.45 805.17 C468.29 805.9 467.1 806.58 465.89 807.23 C462.51 808.93 462.51 808.93 460.45 811.17 C459.05 811.73 457.63 812.24 456.2 812.73 C451.5 814.54 447.5 816.91 443.33 819.67 C430.47 828.17 430.47 828.17 425.45 828.17 C425.12 829.16 424.79 830.15 424.45 831.17 C420 835.17 420 835.17 417.45 835.17 C417.45 835.83 417.45 836.49 417.45 837.17 C416.13 836.84 414.81 836.51 413.45 836.17 C413.45 837.16 413.45 838.15 413.45 839.17 C410.56 839.99 408.57 840.17 405.45 840.17 C405.45 840.83 405.45 841.49 405.45 842.17 C403.21 843.68 403.21 843.68 400.14 845.42 C399.04 846.04 397.95 846.66 396.82 847.3 C392.94 849.45 389.04 851.58 385.14 853.68 C381.5 855.69 377.97 857.87 374.45 860.07 C372.45 861.17 372.45 861.17 370.45 861.17 C370.45 861.83 370.45 862.49 370.45 863.17 C369.82 863.28 369.18 863.39 368.52 863.5 C367.28 863.74 367.28 863.74 366.02 863.98 C365.19 864.13 364.37 864.28 363.52 864.44 C362.84 864.68 362.16 864.92 361.45 865.17 C361.12 866.16 360.79 867.15 360.45 868.17 C358.48 869.54 356.48 870.87 354.45 872.17 C353.92 872.7 353.38 873.24 352.83 873.79 C350.59 876.03 348.37 877.04 345.25 877.49 C341.67 878.36 338.77 880.06 335.64 881.92 C335.02 882.28 334.41 882.64 333.77 883.01 C330.4 884.98 327.07 887.01 323.77 889.11 C320.45 891.17 320.45 891.17 317.45 892.17 C314.69 894.71 312.54 897.02 310.58 900.23 C307.14 904.57 301.18 904.98 296.05 906.02 C291.93 907.33 290.37 909.08 287.45 912.17 C284.99 913.17 284.99 913.17 282.52 913.73 C278.06 914.9 275.05 916.31 271.45 919.17 C271.12 919.83 270.79 920.49 270.45 921.17 C266.21 922.78 261.82 923.94 257.45 925.17 C257.45 925.83 257.45 926.49 257.45 927.17 C256.49 927.35 256.49 927.35 255.52 927.54 C254.84 927.75 254.15 927.96 253.45 928.17 C253.12 928.83 252.79 929.49 252.45 930.17 C249.89 930.79 249.89 930.79 247.45 931.17 C247.45 931.83 247.45 932.49 247.45 933.17 C245.81 934.2 244.14 935.2 242.45 936.17 C241.65 936.87 240.84 937.57 240.02 938.29 C237.07 940.45 235.04 940.78 231.45 941.17 C228.37 941.81 228.37 941.81 227.45 944.04 C226.96 945.09 226.96 945.09 226.45 946.17 C224.65 948.61 223.81 949.11 220.77 949.61 C215.73 950.46 211.11 952.4 207.58 956.17 C203.5 960.01 197.7 961.42 192.45 963.17 C192.12 964.16 191.79 965.15 191.45 966.17 C189.17 966.84 186.93 967.12 184.58 967.45 C182.3 967.97 182.3 967.97 181.3 970.07 C181.02 970.76 180.74 971.45 180.45 972.17 C178.39 974.86 178.39 974.86 175.45 977.17 C173.44 977.43 173.44 977.43 171.2 977.48 C165.8 977.77 163.56 980.52 159.84 984.18 C156.55 986.92 153.2 987.9 149.17 989.17 C145.51 990.52 142.57 992.53 139.43 994.8 C136.3 996.96 134.3 998.17 130.45 998.17 C130.45 998.83 130.45 999.49 130.45 1000.17 C128.52 1001.15 126.58 1002.13 124.64 1003.11 C123.56 1003.65 122.48 1004.2 121.37 1004.76 C118.45 1006.17 118.45 1006.17 115.45 1007.17 C115.45 1007.83 115.45 1008.49 115.45 1009.17 C114.79 1009.17 114.13 1009.17 113.45 1009.17 C113.12 1010.49 112.79 1011.81 112.45 1013.17 C111.59 1013.37 111.59 1013.37 110.7 1013.59 C104.79 1015.12 100.75 1016.74 96.45 1021.17 C92.72 1023.36 88.77 1025.04 84.77 1026.67 C81.47 1027.99 81.47 1027.99 79.14 1030.04 C76.62 1032.03 74.4 1033.23 71.52 1034.61 C68.36 1036.12 65.74 1037.58 63.14 1039.92 C60.28 1042.32 59.01 1042.55 55.45 1043.17 C52.44 1044.95 49.96 1046.59 47.64 1049.23 C44.87 1051.69 42.21 1052.32 38.71 1053.38 C34.97 1054.69 31.28 1056.51 29.45 1060.17 C25.84 1061.56 22.26 1062.5 18.45 1063.17 C18.45 1063.83 18.45 1064.49 18.45 1065.17 C17.46 1065.17 16.47 1065.17 15.45 1065.17 C15.45 1065.83 15.45 1066.49 15.45 1067.17 C14.46 1067.17 13.47 1067.17 12.45 1067.17 C12.45 1067.83 12.45 1068.49 12.45 1069.17 C10.16 1070.17 7.87 1071.17 5.58 1072.17 C4.93 1072.45 4.28 1072.74 3.61 1073.04 C-1.32 1075.17 -1.32 1075.17 -3.55 1075.17 C-3.55 1075.83 -3.55 1076.49 -3.55 1077.17 C-4.48 1077.35 -4.48 1077.35 -5.42 1077.54 C-7.74 1078.04 -7.74 1078.04 -9.55 1080.17 C-11.61 1080.98 -11.61 1080.98 -13.98 1081.73 C-14.77 1081.98 -15.55 1082.23 -16.36 1082.48 C-17.08 1082.71 -17.8 1082.94 -18.55 1083.17 C-19.54 1083.5 -20.53 1083.83 -21.55 1084.17 C-21.55 1084.83 -21.55 1085.49 -21.55 1086.17 C-26.97 1088.4 -32.12 1090.13 -37.92 1091.04 C-41.7 1091.68 -44.72 1092.56 -48.11 1094.36 C-49.81 1095.25 -49.81 1095.25 -51.55 1096.17 C-52.21 1095.84 -52.87 1095.51 -53.55 1095.17 C-53.55 1095.83 -53.55 1096.49 -53.55 1097.17 C-102.95 1102.37 -102.95 1102.37 -115.55 1094.17 C-119.66 1092.47 -123.61 1091.25 -128.05 1090.86 C-133.08 1089.87 -136.43 1087.11 -140.55 1084.17 C-145.61 1080.78 -145.61 1080.78 -151.11 1078.23 C-154.21 1076.88 -156.3 1074.92 -158.79 1072.66 C-160.67 1070.97 -160.67 1070.97 -163.67 1069.42 C-167.19 1066.66 -168.29 1064.04 -170.14 1060.04 C-171.73 1056.8 -173.53 1053.82 -175.48 1050.79 C-176.43 1049.33 -176.43 1049.33 -177.39 1047.83 C-179.45 1044.99 -179.45 1044.99 -182.7 1043.26 C-185.55 1041.17 -185.55 1041.17 -186.61 1037.88 C-186.78 1036.64 -186.94 1035.39 -187.11 1034.11 C-188.05 1028.04 -189.72 1023.01 -192.41 1017.5 C-195.53 1011.09 -196.18 1004.26 -197.08 997.28 C-197.46 994.14 -197.46 994.14 -198.55 991.17 C-198.74 989.55 -198.91 987.92 -199.05 986.29 C-199.26 983.77 -199.51 981.36 -200.05 978.88 C-200.59 975.94 -200.74 973.15 -200.83 970.17 C-200.87 969.03 -200.9 967.9 -200.94 966.73 C-201.01 964.36 -201.08 961.98 -201.15 959.61 C-201.19 958.47 -201.23 957.34 -201.27 956.17 C-201.3 955.14 -201.33 954.11 -201.36 953.04 C-201.47 950.25 -201.47 950.25 -202.05 947.87 C-202.6 944.87 -202.67 942.09 -202.66 939.04 C-202.66 937.18 -202.66 937.18 -202.65 935.29 C-202.65 933.92 -202.64 932.54 -202.64 931.17 C-202.63 929.71 -202.63 928.25 -202.63 926.79 C-202.62 922.78 -202.61 918.77 -202.59 914.76 C-202.58 910.43 -202.57 906.11 -202.56 901.78 C-202.54 893.31 -202.52 884.83 -202.49 876.36 C-202.47 869.48 -202.45 862.6 -202.43 855.71 C-202.43 854.73 -202.42 853.75 -202.42 852.75 C-202.42 850.76 -202.41 848.77 -202.4 846.78 C-202.35 828.13 -202.3 809.49 -202.24 790.84 C-202.19 774.82 -202.15 758.8 -202.1 742.79 C-202.06 724.2 -202.01 705.61 -201.95 687.03 C-201.94 685.05 -201.94 683.07 -201.93 681.09 C-201.93 680.11 -201.93 679.14 -201.92 678.14 C-201.9 671.26 -201.89 664.38 -201.87 657.5 C-201.85 649.12 -201.82 640.74 -201.79 632.37 C-201.78 628.09 -201.77 623.81 -201.76 619.53 C-201.75 615.62 -201.74 611.72 -201.72 607.81 C-201.71 606.39 -201.71 604.96 -201.71 603.54 C-201.71 601.63 -201.7 599.71 -201.69 597.79 C-201.68 596.19 -201.68 596.19 -201.68 594.55 C-201.55 592.17 -201.55 592.17 -200.55 591.17 C-200.45 589.8 -200.42 588.43 -200.41 587.05 C-200.41 586.22 -200.41 585.38 -200.41 584.52 C-200.41 583.64 -200.42 582.76 -200.42 581.86 C-200.42 580.99 -200.41 580.12 -200.41 579.22 C-200.41 578.38 -200.41 577.54 -200.41 576.68 C-200.42 575.53 -200.42 575.53 -200.42 574.35 C-200.55 572.16 -200.97 570.28 -201.55 568.17 C-201.76 566.42 -201.95 564.67 -202.11 562.92 C-202.19 562.03 -202.28 561.13 -202.36 560.21 C-202.42 559.54 -202.48 558.86 -202.55 558.17 C-202.88 558.17 -203.21 558.17 -203.55 558.17 C-203.22 550.91 -202.89 543.65 -202.55 536.17 C-203.21 535.84 -203.87 535.51 -204.55 535.17 C-203.89 535.17 -203.23 535.17 -202.55 535.17 C-201.68 531.42 -201.42 527.95 -201.41 524.1 C-201.4 522.88 -201.4 521.65 -201.39 520.39 C-201.39 519.03 -201.39 517.67 -201.39 516.32 C-201.38 514.87 -201.38 513.43 -201.37 511.99 C-201.36 508.02 -201.35 504.05 -201.35 500.08 C-201.34 495.8 -201.32 491.52 -201.31 487.25 C-201.29 479.83 -201.27 472.42 -201.26 465.01 C-201.23 454.29 -201.21 443.57 -201.18 432.85 C-201.13 415.46 -201.08 398.07 -201.04 380.68 C-201 363.79 -200.96 346.9 -200.92 330 C-200.92 328.44 -200.92 328.44 -200.91 326.85 C-200.9 321.62 -200.88 316.4 -200.87 311.18 C-200.76 267.84 -200.65 224.5 -200.55 181.17 C-201.21 180.84 -201.87 180.51 -202.55 180.17 C-202.06 178.9 -202.06 178.9 -201.55 177.6 C-200.49 173.97 -200.34 171.06 -200.42 167.29 C-200.45 165.56 -200.45 165.56 -200.48 163.8 C-200.5 162.93 -200.52 162.06 -200.55 161.17 C-200.22 161.17 -199.89 161.17 -199.55 161.17 C-199.42 159.95 -199.3 158.73 -199.17 157.48 C-198.86 154.96 -198.52 153.09 -197.55 150.73 C-195.53 145.56 -195.37 139.68 -195.55 134.17 C-194.89 134.17 -194.23 134.17 -193.55 134.17 C-193.43 133.47 -193.32 132.77 -193.2 132.05 C-192.48 128.87 -191.38 126.1 -190.11 123.11 C-189.68 122.08 -189.25 121.06 -188.8 120.01 C-187.78 117.69 -186.71 115.42 -185.55 113.17 C-185.05 113.66 -185.05 113.66 -184.55 114.17 C-184.59 113.12 -184.63 112.06 -184.67 110.98 C-184.56 107.43 -184.07 105.32 -182.55 102.17 C-180.88 102.17 -179.21 102.17 -177.55 102.17 C-177.42 101.59 -177.29 101.01 -177.16 100.42 C-175.45 94.14 -172.76 90.05 -167.55 86.17 C-166.38 84.88 -165.23 83.56 -164.11 82.23 C-161.99 79.74 -159.91 77.52 -157.36 75.48 C-154.49 73.3 -154.49 73.3 -152.55 70.54 C-150.16 67.7 -147.97 66.55 -144.55 65.17 C-143.56 65.17 -142.57 65.17 -141.55 65.17 C-141.55 64.18 -141.55 63.19 -141.55 62.17 C-138.16 59.2 -135.62 57.91 -131.17 57.92 C-129.98 58 -128.78 58.08 -127.55 58.17 C-127.55 57.51 -127.55 56.85 -127.55 56.17 C-126.23 56.17 -124.91 56.17 -123.55 56.17 C-123.05 55.18 -123.05 55.18 -122.55 54.17 C-122.22 54.5 -121.89 54.83 -121.55 55.17 C-120.89 54.18 -120.23 53.19 -119.55 52.17 C-118.23 52.17 -116.91 52.17 -115.55 52.17 C-115.22 51.84 -114.89 51.51 -114.55 51.17 C-113.23 50.89 -111.91 50.65 -110.58 50.45 C-109.78 50.32 -108.98 50.19 -108.16 50.06 C-107.32 49.93 -106.48 49.8 -105.61 49.67 C-103.95 49.41 -102.3 49.15 -100.64 48.89 C-99.91 48.77 -99.17 48.66 -98.41 48.54 C-96.46 48.24 -96.46 48.24 -94.55 47.17 C-94.55 47.83 -94.55 48.49 -94.55 49.17 C-90.59 49.17 -86.63 49.17 -82.55 49.17 C-82.55 48.51 -82.55 47.85 -82.55 47.17 C-81.56 46.84 -80.57 46.51 -79.55 46.17 C-77.96 44.11 -77.96 44.11 -76.42 41.61 C-72.84 36.3 -68.73 31.95 -63.55 28.17 C-62.89 28.17 -62.23 28.17 -61.55 28.17 C-61.46 27.56 -61.37 26.95 -61.28 26.32 C-60.34 23.56 -59.33 23.11 -56.8 21.73 C-52.49 19.23 -49.35 16.2 -46.05 12.48 C-43.98 10.67 -42.19 9.95 -39.55 9.17 C-38.37 9.25 -37.2 9.33 -35.98 9.42 C-34.28 9.29 -34.28 9.29 -32.55 9.17 C-31.99 8.2 -31.44 7.23 -30.86 6.23 C-28.22 2.73 -28.22 2.73 -24.58 2.18 C-23.07 2.04 -21.56 1.94 -20.05 1.86 C-14.85 1.6 -14.85 1.6 -9.77 0.66 C-6.53 -0.06 -3.3 0.01 0 0 Z " fill="#F91712" transform="translate(341.546875,98.83203125)"/>
<path d="M0 0 C2.15 0.67 4.29 1.39 6.42 2.14 C9.97 3.37 13.5 4.05 17.19 4.72 C20 5.29 22.66 6.16 25.36 7.16 C25.36 7.82 25.36 8.48 25.36 9.16 C26.32 9.36 27.29 9.57 28.29 9.78 C33.19 11.17 37.47 13.91 41.36 17.16 C41.36 17.82 41.36 18.48 41.36 19.16 C42.35 19.16 43.34 19.16 44.36 19.16 C44.36 19.82 44.36 20.48 44.36 21.16 C45.02 21.16 45.68 21.16 46.36 21.16 C46.36 21.82 46.36 22.48 46.36 23.16 C47.2 23.26 48.05 23.36 48.92 23.47 C54.37 24.56 58.59 26.31 62.67 30.09 C66.11 33.23 69.61 34.58 73.94 36.16 C76.88 37.37 79.13 39 81.63 40.93 C84.12 42.7 86.81 43.93 89.55 45.25 C91.71 46.34 93.57 47.52 95.36 49.16 C95.36 49.82 95.36 50.48 95.36 51.16 C97.34 51.16 99.32 51.16 101.36 51.16 C101.36 51.82 101.36 52.48 101.36 53.16 C101.97 53.24 102.59 53.32 103.23 53.41 C103.93 53.65 104.63 53.9 105.36 54.16 C105.66 54.82 105.97 55.48 106.29 56.16 C106.64 56.82 106.99 57.48 107.36 58.16 C109.01 58.56 110.68 58.87 112.36 59.16 C117.5 60.94 121.7 63.27 125.92 66.72 C129.18 69.38 131.94 70.86 135.98 72.15 C142.97 75.11 149.32 80.11 155.6 84.34 C159.34 86.81 163.29 88.67 167.36 90.53 C170.36 92.16 170.36 92.16 172.98 94.53 C177.34 98.39 182.99 100.11 188.36 102.16 C188.36 102.82 188.36 103.48 188.36 104.16 C189.06 104.43 189.77 104.7 190.49 104.98 C197.87 108.01 204.98 111.71 211.67 116.07 C213.17 117.04 214.73 117.92 216.29 118.78 C218.36 120.16 218.36 120.16 219.36 123.16 C220.02 123.16 220.68 123.16 221.36 123.16 C221.36 123.82 221.36 124.48 221.36 125.16 C221.97 125.22 222.59 125.28 223.23 125.35 C229.54 126.26 233 128.12 237.8 132.22 C242.81 136.02 248.69 138.48 254.36 141.16 C260.55 144.19 266.61 147.32 272.36 151.16 C272.36 151.82 272.36 152.48 272.36 153.16 C273.68 152.83 275 152.5 276.36 152.16 C276.69 153.15 277.02 154.14 277.36 155.16 C278.68 155.52 280.02 155.85 281.36 156.16 C282.86 157.39 282.86 157.39 284.36 158.91 C288.28 162.45 292.57 164.08 297.49 165.88 C300.59 167.26 302.76 169 305.36 171.16 C306.81 172.01 308.29 172.82 309.79 173.59 C313.78 175.75 317.06 178.03 320.36 181.16 C320.36 181.82 320.36 182.48 320.36 183.16 C320.91 183.24 321.47 183.32 322.04 183.41 C326.51 184.85 328.92 187.39 331.2 191.43 C331.76 192.65 332.32 193.87 332.86 195.09 C335.02 199.98 337.44 203.46 341.36 207.16 C342.17 209.47 342.17 209.47 342.36 211.16 C343.02 211.16 343.68 211.16 344.36 211.16 C344.27 215.22 344.16 219.28 344.04 223.34 C344.02 224.49 344 225.64 343.97 226.83 C343.94 227.94 343.9 229.05 343.87 230.2 C343.84 231.22 343.81 232.24 343.79 233.29 C343.3 236.55 342.19 238.45 340.36 241.16 C339.67 242.48 339 243.81 338.36 245.16 C337.7 245.16 337.04 245.16 336.36 245.16 C335.89 246.58 335.89 246.58 335.42 248.03 C334.36 251.16 334.36 251.16 333.36 253.16 C332.7 253.16 332.04 253.16 331.36 253.16 C331.26 253.74 331.17 254.32 331.08 254.92 C330.18 257.71 328.9 258.94 326.79 260.97 C326.08 261.66 325.36 262.35 324.62 263.06 C321.83 265.64 319 268.15 316.12 270.61 C314.34 272.13 314.34 272.13 312.75 273.78 C310.14 276.36 308.01 277.16 304.36 277.16 C304.36 277.82 304.36 278.48 304.36 279.16 C297.22 283.41 297.22 283.41 293.36 284.16 C290.19 284.96 290.19 284.96 287.36 286.16 C287.03 287.15 286.7 288.14 286.36 289.16 C280.3 294.3 272.74 299.23 265.36 302.16 C263.04 301.81 263.04 301.81 261.36 301.16 C261.36 301.82 261.36 302.48 261.36 303.16 C260.37 303.16 259.38 303.16 258.36 303.16 C257.7 304.48 257.04 305.8 256.36 307.16 C255.37 307.16 254.38 307.16 253.36 307.16 C253.36 307.82 253.36 308.48 253.36 309.16 C252.7 309.16 252.04 309.16 251.36 309.16 C251.03 309.82 250.7 310.48 250.36 311.16 C249.47 311.26 248.58 311.36 247.67 311.47 C243.46 312.34 241.56 314.36 238.36 317.16 C235.48 318.47 235.48 318.47 233.36 319.16 C233.36 319.82 233.36 320.48 233.36 321.16 C232.1 321.26 230.84 321.36 229.54 321.47 C226.22 321.85 226.22 321.85 223.48 323.72 C223.11 324.19 222.74 324.67 222.36 325.16 C221.7 325.16 221.04 325.16 220.36 325.16 C220.03 326.48 219.7 327.8 219.36 329.16 C218.7 329.16 218.04 329.16 217.36 329.16 C217.03 329.82 216.7 330.48 216.36 331.16 C215.18 331.22 214 331.28 212.79 331.34 C207.97 331.81 205.88 334.11 202.5 337.38 C199.47 339.89 196.23 340.95 192.55 342.25 C189.85 343.36 188.28 345 186.36 347.16 C185.37 347.16 184.38 347.16 183.36 347.16 C183.03 347.82 182.7 348.48 182.36 349.16 C179.36 350.16 179.36 350.16 175.36 350.16 C175.26 350.76 175.16 351.36 175.07 351.98 C174.2 354.64 173.25 355.39 170.98 356.97 C170.07 357.63 170.07 357.63 169.14 358.3 C167.36 359.16 167.36 359.16 164.36 358.16 C164.36 358.82 164.36 359.48 164.36 360.16 C149.02 369.16 149.02 369.16 145.36 369.16 C145.36 369.82 145.36 370.48 145.36 371.16 C144.09 371.8 142.81 372.45 141.54 373.09 C140.84 373.45 140.13 373.81 139.4 374.18 C137.36 375.16 137.36 375.16 134.36 376.16 C133.7 375.83 133.04 375.5 132.36 375.16 C132.36 375.82 132.36 376.48 132.36 377.16 C131.59 377.4 130.83 377.65 130.04 377.91 C127.26 378.94 127.26 378.94 125.86 381.22 C124.36 383.16 124.36 383.16 121.67 383.91 C120.9 383.99 120.14 384.07 119.36 384.16 C119.36 384.82 119.36 385.48 119.36 386.16 C117.7 386.54 116.03 386.87 114.36 387.16 C114.03 386.83 113.7 386.5 113.36 386.16 C112.78 386.92 112.2 387.68 111.61 388.47 C109.63 390.83 107.94 392.52 105.36 394.16 C104.7 394.16 104.04 394.16 103.36 394.16 C103.03 394.82 102.7 395.48 102.36 396.16 C100.78 396.84 99.17 397.46 97.54 398.03 C93.66 399.51 90.98 400.81 88.36 404.16 C87.37 403.83 86.38 403.5 85.36 403.16 C85.36 403.82 85.36 404.48 85.36 405.16 C83.71 405.49 82.06 405.82 80.36 406.16 C80.36 406.82 80.36 407.48 80.36 408.16 C78.71 408.49 77.06 408.82 75.36 409.16 C75.36 409.82 75.36 410.48 75.36 411.16 C72.1 412.9 69.28 414.17 65.67 415.03 C61.67 416.39 61.39 417.64 59.36 421.16 C56.67 421.47 56.67 421.47 54.36 421.16 C54.03 421.82 53.7 422.48 53.36 423.16 C51.38 423.88 49.38 424.55 47.36 425.16 C47.03 424.83 46.7 424.5 46.36 424.16 C45.71 425.61 45.71 425.61 45.04 427.09 C43.36 430.16 43.36 430.16 40.36 431.16 C39.7 431.82 39.04 432.48 38.36 433.16 C37.7 433.16 37.04 433.16 36.36 433.16 C35.02 433.47 33.68 433.8 32.36 434.16 C32.36 434.82 32.36 435.48 32.36 436.16 C31.37 436.16 30.38 436.16 29.36 436.16 C29.36 436.82 29.36 437.48 29.36 438.16 C25.2 441.27 25.2 441.27 22.04 440.84 C21.21 440.5 21.21 440.5 20.36 440.16 C20.03 441.15 19.7 442.14 19.36 443.16 C18.37 443.16 17.38 443.16 16.36 443.16 C14.34 443.76 12.34 444.41 10.36 445.09 C9.3 445.45 8.25 445.81 7.17 446.18 C5.78 446.67 5.78 446.67 4.36 447.16 C1.04 448.26 -0.83 448.06 -4.27 447.66 C-6.06 447.45 -7.85 447.27 -9.64 447.16 C-9.97 447.49 -10.3 447.82 -10.64 448.16 C-16.89 448.63 -20.88 447.62 -26.39 444.78 C-27.04 444.46 -27.69 444.15 -28.35 443.82 C-30.12 442.95 -31.88 442.05 -33.64 441.16 C-34.45 440.75 -35.26 440.35 -36.1 439.93 C-36.61 439.67 -37.12 439.42 -37.64 439.16 C-37.64 438.5 -37.64 437.84 -37.64 437.16 C-38.96 437.49 -40.28 437.82 -41.64 438.16 C-41.97 437.5 -42.3 436.84 -42.64 436.16 C-44.49 433.38 -46.2 431.68 -48.64 429.47 C-53.64 424.62 -55.55 419.27 -55.71 412.36 C-55.69 411.63 -55.67 410.9 -55.64 410.16 C-56.3 410.16 -56.96 410.16 -57.64 410.16 C-58.79 407.87 -58.83 406.43 -58.94 403.89 C-58.98 403.01 -59.02 402.13 -59.06 401.22 C-59.1 400.27 -59.14 399.32 -59.18 398.34 C-59.22 397.36 -59.27 396.39 -59.31 395.39 C-59.45 392.27 -59.58 389.15 -59.71 386.03 C-59.8 383.92 -59.89 381.81 -59.98 379.7 C-60.21 374.52 -60.43 369.34 -60.64 364.16 C-59.98 364.16 -59.32 364.16 -58.64 364.16 C-58.89 362.46 -58.89 362.46 -59.14 360.74 C-59.97 353.15 -59.79 345.51 -59.78 337.89 C-59.78 336.18 -59.78 334.47 -59.78 332.76 C-59.78 329.16 -59.78 325.56 -59.77 321.96 C-59.77 317.47 -59.77 312.98 -59.78 308.49 C-59.8 284.36 -59.41 260.27 -58.64 236.16 C-59.3 235.83 -59.96 235.5 -60.64 235.16 C-60.78 210.72 -60.89 186.29 -60.96 161.85 C-60.99 150.5 -61.03 139.16 -61.1 127.81 C-61.16 117.92 -61.2 108.03 -61.21 98.13 C-61.22 92.9 -61.24 87.66 -61.28 82.43 C-61.32 77.49 -61.33 72.56 -61.32 67.62 C-61.32 65.82 -61.34 64.01 -61.36 62.21 C-61.48 52.57 -61.24 45.18 -56.07 36.68 C-53.85 32.75 -53.21 28.6 -52.64 24.16 C-51.65 23.83 -50.66 23.5 -49.64 23.16 C-48.21 21.03 -48.21 21.03 -46.89 18.47 C-43.83 13.21 -40.61 8.23 -34.45 6.56 C-32.9 6.29 -31.35 6.03 -29.8 5.79 C-27.22 5.03 -26.4 4.03 -24.64 2.03 C-18.65 -3.66 -7.45 -1.72 0 0 Z " fill="#FCFCFC" transform="translate(453.64453125,447.84375)"/>
<path d="M0 0 C1.81 0.19 1.81 0.19 4 1 C6.76 4.39 7.56 7.91 8.4 12.14 C9.31 16.48 10.46 20.77 11.59 25.06 C13.62 32.96 14.18 40.63 14.19 48.75 C14.2 49.59 14.21 50.42 14.22 51.29 C14.23 52.09 14.23 52.9 14.23 53.73 C14.23 54.46 14.24 55.18 14.24 55.93 C13.96 58.32 13.1 59.88 12 62 C11.77 63.92 11.55 65.84 11.35 67.77 C10.64 72.34 9.07 76.86 7 81 C6.86 82.11 6.71 83.23 6.56 84.38 C6.08 87.46 5.58 89.37 4 92 C3.34 92 2.68 92 2 92 C1.9 92.68 1.79 93.36 1.69 94.06 C0.85 97.63 -0.49 100.66 -2 104 C-2.66 104 -3.32 104 -4 104 C-4.37 104.87 -4.37 104.87 -4.75 105.75 C-6.19 108.34 -7.9 109.9 -10 112 C-10.89 113.18 -11.76 114.37 -12.62 115.56 C-15.31 119.21 -18.22 122.63 -21.25 126 C-22.53 127.42 -22.53 127.42 -23.83 128.88 C-26 131 -26 131 -28 131 C-28 131.66 -28 132.32 -28 133 C-29.67 134 -31.33 135 -33 136 C-34.08 137.18 -34.08 137.18 -35.19 138.38 C-39.44 142.34 -45.05 146 -51 146 C-51.33 146.99 -51.66 147.98 -52 149 C-55 151 -55 151 -59 151 C-59 151.66 -59 152.32 -59 153 C-59.6 153.27 -60.2 153.54 -60.81 153.81 C-63.01 154.85 -63.01 154.85 -64.36 156.47 C-66.31 158.29 -67.93 158.89 -70.46 159.72 C-71.32 160.01 -72.19 160.3 -73.08 160.61 C-73.98 160.9 -74.88 161.2 -75.81 161.5 C-81.44 163.37 -86.69 165.34 -92 168 C-94.16 168.41 -94.16 168.41 -96.06 168.5 C-100.13 169.02 -101.58 169.94 -105 172 C-107.15 172.77 -109.31 173.48 -111.5 174.12 C-112.6 174.46 -113.71 174.79 -114.84 175.13 C-117.56 175.88 -120.24 176.47 -123 177 C-125.01 177.64 -127.01 178.31 -129 179 C-129.65 179.2 -130.29 179.41 -130.96 179.62 C-135.48 181.07 -139.78 182.77 -144.12 184.69 C-148.75 186.66 -151.96 187.1 -157 187 C-160.11 188.1 -163.03 189.57 -166 191 C-171.66 193.56 -176.63 195.43 -182.89 195.63 C-185.14 195.89 -185.14 195.89 -187.3 197.4 C-189.96 198.98 -192.42 199.97 -195.35 200.94 C-196.37 201.28 -197.39 201.61 -198.43 201.96 C-200.01 202.48 -200.01 202.48 -201.62 203 C-203.17 203.51 -203.17 203.51 -204.75 204.04 C-210.66 205.99 -216.6 207.76 -222.63 209.34 C-225.5 210.14 -228.25 211.16 -231.03 212.24 C-233.24 213.09 -235.45 213.9 -237.69 214.69 C-238.39 214.94 -239.1 215.19 -239.82 215.45 C-242 216 -242 216 -244.41 215.93 C-247.68 216.02 -249.85 217.07 -252.81 218.44 C-257.74 220.59 -261.69 221.53 -267 222 C-268.68 222.64 -270.35 223.3 -272 224 C-273.07 224.16 -274.14 224.33 -275.25 224.5 C-276.16 224.66 -277.07 224.83 -278 225 C-278.33 225.66 -278.66 226.32 -279 227 C-280.32 227 -281.64 227 -283 227 C-283.33 227.66 -283.66 228.32 -284 229 C-285.09 228.94 -286.19 228.88 -287.31 228.81 C-290.9 228.58 -290.9 228.58 -292.44 230.44 C-294.67 232.67 -296.97 232.48 -300.01 232.76 C-303.35 233.16 -306.09 234.49 -309 236.12 C-311 237 -311 237 -313.36 236.9 C-316.43 237.02 -317.71 237.77 -320.25 239.44 C-323.44 241.33 -325.73 242.3 -329.44 242.5 C-334.09 242.78 -337.27 244.49 -341.33 246.66 C-347.49 249.75 -354.11 251.74 -360.88 252.94 C-366.42 253.93 -371.54 255.89 -376.8 257.88 C-379.56 258.85 -382.13 259.5 -385 260 C-392.89 261.83 -392.89 261.83 -399.23 266.49 C-401.89 268.76 -404.61 269.02 -408 269.69 C-409.24 269.94 -410.48 270.19 -411.75 270.45 C-415 271 -415 271 -418 271 C-416.63 266.53 -414.69 264.77 -411 262 C-410.34 261.01 -409.68 260.02 -409 259 C-407 257.86 -407 257.86 -404.56 256.75 C-399.6 254.38 -395.09 251.57 -390.48 248.58 C-387.12 246.44 -383.83 244.44 -379.94 243.5 C-374.87 242.19 -370.05 238.34 -366.64 234.45 C-364.58 232.63 -362.99 232.32 -360.31 231.81 C-359.5 231.65 -358.7 231.5 -357.86 231.33 C-357.25 231.22 -356.63 231.11 -356 231 C-356 230.34 -356 229.68 -356 229 C-353.76 227.48 -353.76 227.48 -350.69 225.75 C-349.59 225.13 -348.49 224.5 -347.36 223.86 C-343.48 221.71 -339.59 219.59 -335.68 217.49 C-332.05 215.47 -328.52 213.3 -325 211.1 C-323 210 -323 210 -321 210 C-321 209.34 -321 208.68 -321 208 C-319.68 208 -318.36 208 -317 208 C-316.67 207.34 -316.34 206.68 -316 206 C-315.01 206.33 -314.02 206.66 -313 207 C-313 206.01 -313 205.02 -313 204 C-311.68 204.33 -310.36 204.66 -309 205 C-309 204.34 -309 203.68 -309 203 C-307.5 201.78 -307.5 201.78 -305.56 200.5 C-302.77 198.71 -302.77 198.71 -301 196 C-299.36 195.18 -299.36 195.18 -297.19 194.31 C-289.99 191.24 -283.26 187.23 -276.81 182.81 C-273.7 180.8 -270.52 179.46 -267.11 178.02 C-264.42 176.72 -262.3 174.9 -260 173 C-259.01 173 -258.02 173 -257 173 C-256.67 172.01 -256.34 171.02 -256 170 C-253.49 168.54 -253.49 168.54 -250.31 167.06 C-245.94 164.97 -241.99 162.75 -238 160 C-235.76 158.71 -233.5 157.47 -231.23 156.23 C-229.26 155.14 -227.32 154.02 -225.38 152.88 C-222 151 -222 151 -218.5 149.56 C-215.15 148.07 -212.66 146.37 -209.75 144.19 C-207.04 142.35 -204.02 141.26 -201 140 C-198.29 138.29 -195.67 136.47 -193.05 134.62 C-187.84 131.03 -182.49 128.2 -176.8 125.45 C-173.23 123.6 -170.22 121.38 -167 119 C-164.43 117.63 -161.84 116.39 -159.2 115.18 C-154.14 112.77 -149.83 109.8 -145.39 106.39 C-142.68 104.81 -141.09 104.71 -138 105 C-138 104.34 -138 103.68 -138 103 C-136.6 101.92 -136.6 101.92 -134.62 100.75 C-133.9 100.32 -133.18 99.89 -132.43 99.44 C-131.63 98.97 -130.83 98.49 -130 98 C-129.12 97.45 -128.25 96.9 -127.35 96.34 C-126.47 95.79 -125.59 95.25 -124.69 94.69 C-123.87 94.18 -123.05 93.66 -122.2 93.14 C-120 92 -120 92 -117 92 C-117 91.34 -117 90.68 -117 90 C-116.08 89.48 -115.16 88.96 -114.22 88.43 C-112.98 87.72 -111.74 87.02 -110.5 86.31 C-109.86 85.95 -109.22 85.59 -108.56 85.21 C-105.11 83.24 -101.71 81.22 -98.38 79.06 C-95 77 -95 77 -93.06 76.55 C-90.51 75.87 -88.79 74.69 -86.62 73.19 C-85.83 72.65 -85.04 72.11 -84.23 71.55 C-82.48 70.33 -80.74 69.11 -79 67.88 C-76.6 66.37 -74.66 65.45 -72.06 64.44 C-65.29 61.55 -59.63 56.78 -53.8 52.36 C-51.3 50.47 -48.78 48.61 -46.25 46.75 C-45.37 46.1 -44.49 45.46 -43.59 44.79 C-41.08 43.06 -38.52 41.57 -35.88 40.06 C-23.23 32.13 -12.45 19.83 -5 7 C-4.34 6.01 -3.68 5.02 -3 4 C-2.67 4.33 -2.34 4.66 -2 5 C-1.34 3.35 -0.68 1.7 0 0 Z " fill="#2CB1F9" transform="translate(1068,731)"/>
<path d="M0 0 C1.1 -0 1.1 -0 2.21 -0.01 C3.76 -0.02 5.3 -0.02 6.84 -0.02 C9.18 -0.02 11.52 -0.04 13.86 -0.06 C15.36 -0.06 16.87 -0.06 18.38 -0.06 C19.06 -0.07 19.75 -0.08 20.47 -0.08 C25.47 -0.06 29.68 0.83 34.45 2.17 C35.23 2.34 36.01 2.52 36.81 2.7 C40.92 3.62 43.9 4.98 47.45 7.17 C49.78 7.9 52.09 8.55 54.45 9.17 C67.3 12.56 67.3 12.56 72.45 18.17 C75.9 18.94 78.93 19.17 82.45 19.17 C82.45 19.83 82.45 20.49 82.45 21.17 C83.44 21.17 84.43 21.17 85.45 21.17 C86.47 22.82 87.47 24.49 88.45 26.17 C90.47 27.86 90.47 27.86 92.83 29.29 C97.12 32.16 101.05 35.25 104.95 38.61 C109.55 42.56 114.21 46.41 118.96 50.18 C121.82 52.46 124.67 54.74 127.52 57.04 C128.43 57.78 129.35 58.52 130.3 59.29 C132.51 61.21 133.17 62.6 134.45 65.17 C135.05 65.45 135.64 65.74 136.25 66.03 C138.95 67.42 140.61 69.16 142.7 71.36 C146.22 74.96 149.85 78.33 153.67 81.61 C156.83 84.37 159.72 87.2 162.25 90.54 C164.59 93.33 167.04 95.42 169.89 97.67 C173.66 100.65 177.08 103.75 180.45 107.17 C182.11 108.68 183.78 110.18 185.45 111.67 C194.96 120.18 194.96 120.18 196.45 123.17 C197.44 123.5 198.43 123.83 199.45 124.17 C199.45 124.83 199.45 125.49 199.45 126.17 C199.99 126.22 200.52 126.27 201.07 126.33 C204.6 127.57 206.93 130.07 209.58 132.61 C210.12 133.11 210.65 133.61 211.21 134.13 C213.32 136.11 215.4 138.12 217.45 140.17 C218.66 141.13 218.66 141.13 219.89 142.11 C224.96 146.19 224.96 146.19 226.45 149.17 C227.24 149.46 228.02 149.75 228.83 150.04 C231.83 151.33 232.67 152.49 234.45 155.17 C234.99 155.7 235.53 156.24 236.08 156.79 C237.45 158.17 237.45 158.17 238.45 160.17 C239.44 160.5 240.43 160.83 241.45 161.17 C243.14 162.81 244.81 164.48 246.45 166.17 C248.32 167.71 250.2 169.24 252.1 170.74 C253.45 172.17 253.45 172.17 253.45 175.17 C254.26 175.51 254.26 175.51 255.08 175.86 C260.95 179.1 265.56 184.15 270.16 188.95 C274.78 193.69 279.69 197.87 284.86 202.01 C287.65 204.33 290.13 206.81 292.64 209.41 C295.62 212.29 298.91 214.77 302.17 217.33 C304.8 219.44 307.13 221.72 309.45 224.17 C310.62 225.34 311.78 226.5 312.95 227.67 C314.92 229.64 316.88 231.61 318.82 233.6 C321.44 236.16 324.16 238.45 327.02 240.73 C329.64 242.83 332.18 244.89 334.55 247.27 C336.36 249.08 338.17 250.47 340.27 251.92 C344.02 254.67 346.94 257.76 349.91 261.34 C351.35 263.04 352.86 264.61 354.45 266.17 C354.89 266.64 355.32 267.12 355.77 267.61 C357.54 269.35 357.54 269.35 360.33 270.98 C363.15 272.95 364.94 274.83 367.03 277.53 C368.74 279.49 370.64 281.07 372.64 282.73 C375.66 285.29 377.49 287.21 378.45 291.17 C374.2 288.87 370.76 286.59 367.12 283.39 C365.14 281.94 363.16 281.1 360.89 280.17 C356.82 278.49 354.54 276.33 351.45 273.17 C350.34 272.69 349.23 272.22 348.08 271.73 C344.9 270.36 343.55 269.5 341.14 267.23 C338.4 264.72 335.95 263.43 332.45 262.17 C329.14 260.96 326.78 259.83 324.2 257.42 C320.95 254.37 317.31 252.17 313.45 249.98 C312.58 249.48 312.58 249.48 311.69 248.97 C308.78 247.35 305.89 245.93 302.82 244.64 C299.71 243.28 297.34 241.82 294.64 239.79 C290.53 236.81 286.4 234.51 281.78 232.41 C279.45 231.17 279.45 231.17 277.04 229.21 C274.28 227.03 271.57 225.61 268.39 224.11 C264.76 222.38 261.64 220.61 258.45 218.17 C256.13 217.14 253.8 216.14 251.45 215.17 C249.45 214.18 247.44 213.19 245.45 212.17 C245.45 211.51 245.45 210.85 245.45 210.17 C244.88 209.99 244.32 209.8 243.73 209.62 C241.3 208.82 238.87 208 236.45 207.17 C235.79 206.94 235.12 206.71 234.44 206.48 C231.36 205.3 229.65 204.44 227.7 201.73 C224.66 198.27 221.47 197.6 217.11 196.36 C213.83 194.89 212.66 192.97 210.45 190.17 C207.66 188.41 207.66 188.41 204.58 187.04 C203.57 186.57 202.56 186.09 201.52 185.6 C200.51 185.13 199.5 184.65 198.45 184.17 C197.43 183.65 196.41 183.14 195.36 182.61 C192.17 181.03 188.92 179.72 185.6 178.43 C183.45 177.17 183.45 177.17 181.58 174.69 C178.96 171.58 176.86 170.91 173.02 169.67 C167.87 167.84 165.18 166.19 161.45 162.17 C157.9 159.96 154.17 158.08 150.45 156.17 C148.49 155.15 146.53 154.12 144.57 153.09 C143.27 152.41 141.97 151.73 140.67 151.06 C137.82 149.56 135.29 148.04 132.78 146.01 C130.45 144.17 128.92 143.5 126.08 142.79 C122.69 141.77 120.67 140.7 118.14 138.23 C114.37 134.63 110.2 133.6 105.22 132.32 C101.81 130.9 100.74 129.03 98.45 126.17 C96.07 124.82 93.81 123.65 91.33 122.54 C84.71 119.55 84.71 119.55 82.45 116.17 C80.01 115.11 80.01 115.11 77.2 114.29 C72.33 112.64 69.39 110.52 65.45 107.17 C63.79 106.45 62.1 105.79 60.39 105.17 C57.09 103.95 55.58 103.3 53.08 100.73 C49.59 97.32 45.81 96.08 41.29 94.38 C38.61 93.24 36.61 92.12 34.45 90.17 C34.45 89.51 34.45 88.85 34.45 88.17 C33.52 87.98 32.6 87.8 31.64 87.61 C26.98 86.29 23.3 83.63 19.3 80.97 C15.85 78.78 12.27 77.05 8.59 75.29 C6.45 74.17 6.45 74.17 3.95 72.04 C1.39 70.12 -0.24 69.6 -3.3 68.79 C-7.14 67.76 -9.88 66.44 -13.11 64.11 C-17.49 60.99 -21.31 60.03 -26.55 59.17 C-37.21 56.69 -37.21 56.69 -38.82 54.18 C-41.29 51.3 -43.41 51.4 -47.11 50.98 C-53.43 50.23 -53.43 50.23 -55.55 49.17 C-58.91 49.14 -62.25 49.2 -65.61 49.29 C-69.43 49.35 -72.31 49.33 -75.55 47.17 C-75.55 46.18 -75.55 45.19 -75.55 44.17 C-76.54 44.66 -76.54 44.66 -77.55 45.17 C-75.58 38.16 -69.42 32.19 -63.55 28.17 C-62.89 28.17 -62.23 28.17 -61.55 28.17 C-61.46 27.56 -61.37 26.95 -61.28 26.32 C-60.34 23.56 -59.33 23.11 -56.8 21.73 C-52.49 19.23 -49.35 16.2 -46.05 12.48 C-43.98 10.67 -42.19 9.95 -39.55 9.17 C-38.37 9.25 -37.2 9.33 -35.98 9.42 C-34.28 9.29 -34.28 9.29 -32.55 9.17 C-31.71 7.72 -31.71 7.72 -30.86 6.23 C-28.22 2.73 -28.22 2.73 -24.58 2.18 C-23.07 2.04 -21.56 1.94 -20.05 1.86 C-14.85 1.6 -14.85 1.6 -9.77 0.66 C-6.53 -0.06 -3.3 0.01 0 0 Z " fill="#020101" transform="translate(341.546875,98.83203125)"/>
<path d="M0 0 C0.33 0 0.66 0 1 0 C1 6.93 1 13.86 1 21 C1.33 21 1.66 21 2 21 C2.06 22 2.12 23 2.18 24.03 C2.27 25.32 2.35 26.61 2.44 27.94 C2.52 29.23 2.6 30.51 2.68 31.84 C2.65 34.86 2.65 34.86 4 36 C4.1 37.4 4.13 38.81 4.13 40.22 C4.13 41.07 4.14 41.92 4.14 42.79 C4.13 43.69 4.13 44.58 4.12 45.5 C4.13 46.39 4.13 47.29 4.14 48.21 C4.14 49.06 4.13 49.91 4.13 50.78 C4.13 51.57 4.13 52.35 4.13 53.16 C4 55 4 55 3 56 C2.9 57.89 2.86 59.78 2.86 61.68 C2.85 62.92 2.85 64.16 2.84 65.44 C2.84 66.83 2.84 68.23 2.84 69.62 C2.83 71.09 2.82 72.56 2.82 74.03 C2.8 78.08 2.79 82.13 2.78 86.18 C2.77 90.55 2.76 94.91 2.74 99.27 C2.72 107.83 2.69 116.39 2.67 124.94 C2.65 131.89 2.63 138.84 2.61 145.79 C2.61 147.27 2.61 147.27 2.61 148.79 C2.6 150.79 2.59 152.8 2.59 154.8 C2.53 173.63 2.48 192.46 2.43 211.29 C2.39 227.46 2.35 243.63 2.3 259.8 C2.24 278.56 2.18 297.32 2.13 316.08 C2.13 318.08 2.12 320.07 2.12 322.07 C2.11 323.55 2.11 323.55 2.11 325.05 C2.09 332 2.07 338.94 2.05 345.89 C2.02 354.35 2 362.81 1.98 371.27 C1.97 375.59 1.96 379.91 1.94 384.23 C1.93 388.18 1.92 392.13 1.92 396.08 C1.91 397.51 1.91 398.95 1.9 400.38 C1.89 402.32 1.89 404.26 1.89 406.2 C1.89 407.28 1.88 408.36 1.88 409.47 C1.83 411.99 1.83 411.99 3 414 C3.13 415.83 3.2 417.66 3.25 419.5 C3.3 421.17 3.3 421.17 3.35 422.88 C3.41 425.22 3.46 427.55 3.52 429.89 C3.71 436.33 4.26 442.44 5.58 448.75 C6.1 451.52 6 454.19 6 457 C6.31 457.93 6.62 458.86 6.94 459.81 C7.83 462.5 8.17 464.36 8.38 467.12 C9.1 474.66 11.88 481.77 15.12 488.56 C17.37 493.42 18.76 498.64 19 504 C18.34 504.66 17.68 505.32 17 506 C16.24 505.71 15.47 505.42 14.69 505.12 C11.65 504.2 8.94 503.66 5.81 503.19 C0.61 502.3 -3.66 500.52 -8.38 498.22 C-10.76 497.11 -13.05 496.31 -15.56 495.56 C-30.93 490.68 -48.43 475.94 -57.06 462.62 C-57.53 461.92 -57.99 461.21 -58.47 460.48 C-66.66 447.21 -72.66 433.24 -76 418 C-76.29 416.81 -76.57 415.62 -76.87 414.39 C-83.99 381.71 -77.94 348.23 -70.5 316.19 C-69.63 312.38 -68.78 308.56 -67.94 304.75 C-67.69 303.62 -67.69 303.62 -67.43 302.47 C-66.42 297.95 -65.45 293.41 -64.5 288.88 C-63.43 283.87 -62.25 278.9 -61 273.94 C-60.83 273.27 -60.66 272.59 -60.49 271.9 C-60.24 270.91 -60.24 270.91 -59.98 269.89 C-57.13 259.19 -57.13 259.19 -55.62 248.25 C-55.2 242.72 -53.5 237.66 -51.87 232.4 C-50.28 227.16 -49.19 222.01 -48.4 216.58 C-48.03 214.21 -47.54 211.94 -46.94 209.62 C-45.98 206.16 -45.98 206.16 -45.56 203.19 C-45.07 200.4 -44.4 197.84 -43.62 195.12 C-41.95 189.14 -40.84 183.11 -39.75 176.99 C-38.96 172.63 -37.98 168.32 -37 164 C-36.69 162.61 -36.38 161.21 -36.07 159.82 C-35.58 157.62 -35.1 155.43 -34.61 153.24 C-33.72 149.25 -32.84 145.27 -31.96 141.29 C-30.52 134.79 -29.08 128.29 -27.56 121.81 C-26.59 117.66 -25.67 113.5 -24.77 109.33 C-24.44 107.8 -24.44 107.8 -24.11 106.24 C-23.67 104.21 -23.23 102.17 -22.8 100.13 C-21.7 95.02 -20.47 90.02 -19 85 C-17 76.45 -15.38 67.82 -13.84 59.18 C-13.01 54.8 -11.9 50.48 -10.8 46.16 C-10.02 43.07 -9.26 39.99 -8.5 36.89 C-8 34.87 -7.5 32.84 -7 30.81 C-6.63 29.29 -6.63 29.29 -6.25 27.74 C-5.11 23.13 -3.91 18.6 -2.36 14.11 C-1.24 10.87 -0.55 7.88 -0.31 4.44 C-0.25 3.59 -0.18 2.74 -0.11 1.87 C-0.08 1.25 -0.04 0.64 0 0 Z " fill="#FADD5D" transform="translate(138,635)"/>
<path d="M0 0 C1.32 0.66 2.64 1.32 4 2 C4.8 26.35 4.8 26.35 -2 34 C-2.66 34.66 -3.32 35.32 -4 36 C-4.42 38.76 -4.42 38.76 -4.53 42 C-4.6 43.22 -4.67 44.44 -4.74 45.69 C-4.87 48.24 -5 50.8 -5.12 53.35 C-6.08 69.74 -6.08 69.74 -11.12 75.38 C-13.21 78.29 -13.31 79.46 -13.56 82.96 C-13.63 83.94 -13.71 84.92 -13.79 85.93 C-13.89 87.45 -13.89 87.45 -14 89 C-14.3 92.77 -14.62 96.54 -14.94 100.31 C-15.01 101.26 -15.09 102.21 -15.16 103.19 C-16.13 114.45 -16.13 114.45 -19.38 118.88 C-21 120 -21 120 -25 120 C-25.25 113.59 -24.7 107.76 -23.45 101.48 C-22.82 97.98 -22.42 94.64 -23.62 91.24 C-24.17 88.01 -23.23 85.68 -22.25 82.56 C-18.46 70.1 -18.46 70.1 -16.62 57.25 C-16.2 51.72 -14.5 46.66 -12.87 41.4 C-11.28 36.16 -10.19 31.01 -9.4 25.58 C-9.03 23.21 -8.54 20.94 -7.94 18.62 C-6.96 15.09 -6.96 15.09 -6.5 11.75 C-5.6 6.81 -3.18 3.82 0 0 Z " fill="#FBD943" transform="translate(99,826)"/>
<path d="M0 0 C7.76 1.9 13.4 3.75 19.11 9.41 C21.76 11.64 24.44 12.28 27.73 13.2 C31.08 14.38 33.68 16.37 36.56 18.4 C39.23 20.15 41.95 21.54 44.81 22.94 C60.86 30.77 60.86 30.77 64.96 35.05 C67.47 37.45 69.83 38.35 73.06 39.56 C79.77 42.09 79.77 42.09 82 45 C82 45.66 82 46.32 82 47 C82.83 47.27 83.65 47.54 84.5 47.81 C85.65 48.2 86.81 48.6 88 49 C88.97 49.33 88.97 49.33 89.97 49.66 C94.48 51.25 98.04 53.28 102 56 C103.35 56.66 104.7 57.31 106.06 57.94 C108.85 59.28 110.18 60.19 112.38 62.5 C115.56 65.53 118.58 66.6 122.7 68.01 C125.09 69.04 126.39 69.97 128 72 C128 72.66 128 73.32 128 74 C128.65 74.18 129.3 74.36 129.98 74.55 C134.93 75.97 139.47 77.49 144 80 C144 80.66 144 81.32 144 82 C144.78 82.23 145.57 82.45 146.38 82.69 C153.95 85.43 160.83 89.4 167.68 93.59 C169.69 94.81 171.7 95.98 173.75 97.12 C177 99 177 99 179.81 100.94 C182.53 102.7 185.16 104.09 188.06 105.5 C190.89 106.87 193.11 108.09 195.56 110.06 C197.76 111.81 199.26 112.59 201.81 113.62 C206.58 115.64 210.87 118.26 215.25 121 C215.94 121.43 216.62 121.85 217.33 122.3 C220.26 124.15 223.02 126.02 225.73 128.21 C227.87 129.9 229.53 130.76 232.06 131.69 C238.35 134.34 243.9 138.5 249 143 C249.33 143.99 249.66 144.98 250 146 C249.67 146.66 249.34 147.32 249 148 C245.02 147.48 243.22 146.61 240.44 143.75 C229.26 133.4 215.27 125.87 201.89 118.78 C197.05 116.21 192.51 113.4 187.98 110.31 C185.76 108.84 183.49 107.62 181.06 106.5 C177.77 104.91 174.62 103.22 171.5 101.31 C166.84 98.46 162.09 95.82 157.31 93.19 C151.49 89.98 145.74 86.7 140.06 83.25 C133.18 79.07 126.17 75.21 119.05 71.44 C118.09 70.92 117.12 70.41 116.12 69.88 C115.26 69.42 114.4 68.96 113.51 68.49 C111 67 111 67 108.63 65.06 C105.55 62.65 102.28 60.9 98.81 59.12 C91.44 55.27 84.11 51.38 77.44 46.38 C74.24 44.01 70.9 42.53 67.21 41.09 C65 40 65 40 62.74 38.13 C59.93 35.94 57.19 34.41 54.01 32.82 C52.84 32.23 51.67 31.64 50.47 31.02 C49.54 30.56 49.54 30.56 48.6 30.09 C38.1 24.8 27.77 19.31 17.62 13.38 C16.65 12.81 15.68 12.24 14.68 11.66 C9.61 8.66 4.64 5.64 0 2 C0 1.34 0 0.68 0 0 Z " fill="#E85C55" transform="translate(443,229)"/>
<path d="M0 0 C0.66 0 1.32 0 2 0 C2 0.89 2 1.77 2 2.68 C1.98 24.2 1.96 45.71 1.95 67.23 C1.94 77.63 1.94 88.03 1.92 98.44 C1.91 107.5 1.91 116.57 1.91 125.63 C1.9 130.44 1.9 135.24 1.89 140.04 C1.89 144.56 1.89 149.07 1.89 153.59 C1.89 155.25 1.88 156.91 1.88 158.57 C1.88 160.83 1.88 163.09 1.88 165.35 C1.88 166.62 1.88 167.88 1.88 169.19 C1.68 171.9 1.68 171.9 3 173 C3.1 174.66 3.13 176.31 3.13 177.97 C3.13 179.05 3.13 180.13 3.14 181.24 C3.13 182.43 3.13 183.62 3.13 184.85 C3.13 186.09 3.13 187.34 3.13 188.63 C3.14 192.06 3.14 195.49 3.13 198.92 C3.13 202.5 3.13 206.08 3.14 209.66 C3.14 215.68 3.14 221.69 3.13 227.71 C3.12 234.67 3.13 241.64 3.13 248.6 C3.14 254.57 3.14 260.54 3.13 266.51 C3.13 270.08 3.13 273.65 3.14 277.22 C3.14 281.2 3.13 285.17 3.13 289.15 C3.13 290.34 3.13 291.54 3.14 292.76 C3.13 293.84 3.13 294.92 3.13 296.03 C3.13 296.97 3.13 297.91 3.13 298.88 C3 301 3 301 2 302 C1.97 303.41 2 304.83 2.07 306.24 C2.11 307.15 2.15 308.05 2.19 308.97 C2.24 309.95 2.29 310.93 2.34 311.94 C2.39 312.94 2.43 313.94 2.48 314.96 C2.63 318.16 2.78 321.36 2.94 324.56 C3.04 326.73 3.14 328.89 3.24 331.05 C3.49 336.37 3.74 341.68 4 347 C4.66 347 5.32 347 6 347 C6.33 348.98 6.66 350.96 7 353 C6.34 353.33 5.68 353.66 5 354 C4.57 352.86 4.57 352.86 4.12 351.69 C3.04 348.85 3.04 348.85 1 346 C0.7 343.47 0.7 343.47 0.62 340.49 C0.59 339.42 0.55 338.35 0.52 337.25 C0.49 336.14 0.46 335.02 0.44 333.88 C0.38 331.66 0.31 329.45 0.25 327.24 C0.22 326.26 0.2 325.28 0.17 324.27 C0.25 322.03 0.25 322.03 -1 321 C-1.1 319.3 -1.13 317.59 -1.13 315.88 C-1.13 314.77 -1.13 313.65 -1.13 312.5 C-1.13 310.64 -1.13 310.64 -1.13 308.74 C-1.13 307.43 -1.13 306.12 -1.13 304.78 C-1.14 301.13 -1.13 297.49 -1.13 293.84 C-1.13 289.92 -1.13 286 -1.13 282.07 C-1.14 274.38 -1.14 266.69 -1.14 258.99 C-1.13 252.74 -1.13 246.5 -1.13 240.25 C-1.13 239.36 -1.13 238.47 -1.13 237.56 C-1.13 235.75 -1.13 233.95 -1.14 232.15 C-1.14 215.22 -1.13 198.29 -1.13 181.36 C-1.12 166.82 -1.13 152.28 -1.13 137.74 C-1.14 120.87 -1.14 104.01 -1.13 87.14 C-1.13 85.35 -1.13 83.55 -1.13 81.75 C-1.13 80.87 -1.13 79.99 -1.13 79.08 C-1.13 72.83 -1.13 66.58 -1.14 60.34 C-1.14 52.73 -1.14 45.13 -1.13 37.52 C-1.13 33.64 -1.13 29.75 -1.13 25.87 C-1.14 21.66 -1.13 17.46 -1.13 13.26 C-1.13 12.02 -1.13 10.78 -1.13 9.5 C-1.13 8.38 -1.13 7.27 -1.13 6.12 C-1.13 5.15 -1.13 4.18 -1.13 3.17 C-1 1 -1 1 0 0 Z " fill="#EF5D55" transform="translate(392,511)"/>
<path d="M0 0 C2.64 1.58 3.86 2.69 5.14 5.53 C6.42 10.68 6.05 15.65 5.83 20.92 C5.71 26.45 6.22 30.16 9 35 C9.85 35.68 10.7 36.35 11.57 37.05 C14.69 39.56 14.96 41.39 15.81 45.25 C17.7 52.1 20.64 55.52 26 60 C28.78 62.71 31.36 65.43 33.81 68.44 C36.6 71.79 39.71 74.09 43.36 76.45 C45.5 78.48 45.67 80.13 46 83 C47.07 82.84 47.07 82.84 48.16 82.68 C56.24 81.66 60.21 82.34 66.94 87.06 C67.62 87.7 68.3 88.34 69 89 C69 89.66 69 90.32 69 91 C70.3 90.81 71.6 90.63 72.94 90.44 C77.81 89.88 82.16 90.31 87 91 C87.39 92.45 87.76 93.91 88.12 95.38 C88.33 96.19 88.54 97 88.76 97.84 C88.88 98.91 88.88 98.91 89 100 C88.34 100.66 87.68 101.32 87 102 C86.24 101.71 85.47 101.42 84.69 101.12 C81.65 100.2 78.94 99.66 75.81 99.19 C70.61 98.3 66.34 96.52 61.62 94.22 C59.24 93.11 56.95 92.31 54.44 91.56 C43.68 88.14 33.86 80.64 26.7 72.04 C25.62 70.75 24.51 69.47 23.36 68.24 C13.12 57.21 6.71 45.17 2 31 C1.23 28.94 0.46 26.87 -0.31 24.81 C-2.75 18.27 -3.69 11.97 -3 5 C-1.5 1.88 -1.5 1.88 0 0 Z " fill="#FBD943" transform="translate(68,1039)"/>
<path d="M0 0 C-3.08 3.67 -5.25 4.57 -10 5 C-10.33 5.99 -10.66 6.98 -11 8 C-13.21 9.47 -13.21 9.47 -16.1 11 C-17.15 11.55 -18.2 12.11 -19.28 12.69 C-20.38 13.27 -21.49 13.84 -22.62 14.44 C-24.78 15.58 -26.94 16.73 -29.1 17.87 C-30.13 18.41 -31.15 18.95 -32.2 19.51 C-34.5 20.73 -36.76 22 -39.01 23.31 C-41.42 24.67 -43.58 25.71 -46.19 26.56 C-49.24 27.64 -51.46 28.95 -54 31 C-54.66 31 -55.32 31 -56 31 C-56.33 31.99 -56.66 32.98 -57 34 C-58.75 35.18 -58.75 35.18 -61 36.31 C-64.18 37.93 -67.11 39.73 -70.05 41.73 C-76.58 46.13 -83.45 49.92 -90.29 53.79 C-95.46 56.75 -100.08 59.71 -104.49 63.72 C-106.8 65.68 -109.33 66.86 -112.06 68.12 C-118.46 71.17 -124.67 74.51 -130.88 77.94 C-139.81 82.85 -148.84 87.52 -158 92 C-159.09 92.57 -160.19 93.13 -161.31 93.71 C-164 95 -164 95 -166 95 C-166 95.66 -166 96.32 -166 97 C-172.11 102.1 -178.48 105.33 -185.88 108.06 C-188.17 108.8 -188.17 108.8 -189 111 C-191.44 110.62 -191.44 110.62 -194 110 C-194.33 109.34 -194.66 108.68 -195 108 C-193.59 107.18 -192.17 106.37 -190.75 105.56 C-189.96 105.11 -189.17 104.66 -188.36 104.19 C-186.2 103.1 -184.34 102.53 -182 102 C-177.8 99.74 -173.8 97.06 -170.64 93.45 C-168.58 91.63 -166.99 91.32 -164.31 90.81 C-163.5 90.65 -162.7 90.5 -161.86 90.33 C-160.94 90.17 -160.94 90.17 -160 90 C-160 89.34 -160 88.68 -160 88 C-157.76 86.48 -157.76 86.48 -154.69 84.75 C-153.04 83.82 -153.04 83.82 -151.36 82.86 C-147.48 80.71 -143.59 78.59 -139.68 76.49 C-136.05 74.47 -132.52 72.3 -129 70.1 C-127 69 -127 69 -125 69 C-125 68.34 -125 67.68 -125 67 C-123.68 67 -122.36 67 -121 67 C-120.67 66.34 -120.34 65.68 -120 65 C-118.51 65.5 -118.51 65.5 -117 66 C-117 65.01 -117 64.02 -117 63 C-115.02 63.5 -115.02 63.5 -113 64 C-113 63.34 -113 62.68 -113 62 C-111.5 60.78 -111.5 60.78 -109.56 59.5 C-106.77 57.71 -106.77 57.71 -105 55 C-103.36 54.18 -103.36 54.18 -101.19 53.31 C-93.99 50.24 -87.26 46.23 -80.81 41.81 C-77.7 39.8 -74.52 38.46 -71.11 37.02 C-68.42 35.72 -66.3 33.9 -64 32 C-63.01 32 -62.02 32 -61 32 C-60.67 31.01 -60.34 30.02 -60 29 C-57.49 27.54 -57.49 27.54 -54.31 26.06 C-49.94 23.97 -45.99 21.75 -42 19 C-39.76 17.71 -37.5 16.47 -35.23 15.23 C-33.26 14.14 -31.32 13.02 -29.38 11.88 C-26 10 -26 10 -22.5 8.56 C-19.74 7.33 -17.86 6.27 -15.5 4.5 C-10.69 0.94 -6.12 -2.04 0 0 Z " fill="#83D6F8" transform="translate(872,872)"/>
<path d="M0 0 C0.99 0.66 1.98 1.32 3 2 C1.55 9.54 -4.83 15 -10.14 20.13 C-12.18 22.09 -12.18 22.09 -14.25 25 C-18.42 30.2 -25.34 34.68 -31.56 36.92 C-34.78 38.34 -36.54 40.49 -39 43 C-41.61 45.06 -44.33 46.97 -47.06 48.88 C-47.82 49.4 -48.57 49.93 -49.35 50.48 C-55.39 54.66 -61.59 58.42 -68 62 C-69.21 62.72 -70.43 63.44 -71.64 64.16 C-72.26 64.53 -72.88 64.9 -73.52 65.28 C-75.27 66.32 -77.02 67.36 -78.77 68.4 C-81.95 69.97 -84.5 70.63 -88 71 C-88 71.99 -88 72.98 -88 74 C-88.86 74.42 -88.86 74.42 -89.73 74.85 C-104.2 81.73 -104.2 81.73 -117.22 90.93 C-119.56 92.34 -121.32 92.19 -124 92 C-124 91.01 -124 90.02 -124 89 C-122.36 87.68 -122.36 87.68 -120.19 86.44 C-119.48 86.02 -118.77 85.61 -118.04 85.18 C-117.37 84.79 -116.69 84.4 -116 84 C-114.51 83.01 -114.51 83.01 -113 82 C-112.01 82 -111.02 82 -110 82 C-110 81.34 -110 80.68 -110 80 C-109.08 79.48 -108.16 78.96 -107.22 78.43 C-105.98 77.72 -104.74 77.02 -103.5 76.31 C-102.86 75.95 -102.22 75.59 -101.56 75.21 C-98.11 73.24 -94.71 71.22 -91.38 69.06 C-88 67 -88 67 -86.06 66.55 C-83.51 65.87 -81.79 64.69 -79.62 63.19 C-78.44 62.38 -78.44 62.38 -77.23 61.55 C-75.48 60.33 -73.74 59.11 -72 57.88 C-69.6 56.37 -67.66 55.45 -65.06 54.44 C-58.29 51.55 -52.63 46.78 -46.8 42.36 C-44.3 40.47 -41.78 38.61 -39.25 36.75 C-38.37 36.1 -37.49 35.46 -36.59 34.79 C-34.08 33.06 -31.52 31.57 -28.88 30.06 C-23.31 26.59 -18.82 22.22 -14.19 17.62 C-13.47 16.92 -12.75 16.21 -12.01 15.48 C-7.31 10.7 -3.51 5.71 0 0 Z " fill="#88D8F9" transform="translate(1061,741)"/>
<path d="M0 0 C19.78 3.65 19.78 3.65 26.2 8.82 C28.38 10.25 30.41 10.79 32.94 11.44 C37.45 12.64 40.23 14.46 43.8 17.39 C47.31 19.96 51.19 21.68 55.1 23.55 C58.33 25.16 61.31 27.01 64.32 28.98 C66.11 30.14 66.11 30.14 68.75 31.06 C71 32 71 32 72.77 33.9 C75.36 36.34 77.62 37.26 80.94 38.5 C85.27 40.12 88.58 41.83 92 45 C92 45.66 92 46.32 92 47 C92.82 47.16 93.64 47.32 94.48 47.48 C95.56 47.71 96.64 47.95 97.75 48.19 C98.82 48.41 99.88 48.63 100.98 48.86 C104.63 50.24 105.64 51.97 108 55 C110.87 56.51 110.87 56.51 114 57.56 C118.4 59.15 120.75 60.7 124 64 C127.05 65.62 130.17 67.02 133.32 68.44 C136.13 70.08 136.95 70.98 138 74 C133.73 74.35 131.57 73.47 128.02 71.15 C127.08 70.54 126.14 69.94 125.18 69.32 C124.21 68.68 123.25 68.04 122.25 67.38 C121.3 66.76 120.35 66.14 119.37 65.5 C115.73 63.14 112.11 60.75 108.52 58.32 C104.26 55.42 100.04 52.86 95.38 50.62 C94.16 50.03 92.94 49.44 91.73 48.84 C91.11 48.54 90.49 48.24 89.86 47.93 C75.91 40.99 62.37 33.17 48.81 25.5 C46.18 24.02 43.55 22.54 40.91 21.07 C39.65 20.37 38.39 19.66 37.14 18.95 C28.35 13.98 19.46 10.04 10 6.54 C6.54 5.25 3.27 3.72 0 2 C0 1.34 0 0.68 0 0 Z " fill="#E95D56" transform="translate(305,155)"/>
<path d="M0 0 C1.26 0.12 2.52 0.25 3.81 0.38 C4.87 0.48 4.87 0.48 5.96 0.59 C8 1 8 1 11 3 C11 3.66 11 4.32 11 5 C12.18 5.34 12.18 5.34 13.38 5.69 C20.95 8.43 27.83 12.4 34.68 16.59 C36.69 17.81 38.7 18.98 40.75 20.12 C44 22 44 22 46.81 23.94 C49.53 25.7 52.16 27.09 55.06 28.5 C57.89 29.87 60.11 31.09 62.56 33.06 C64.76 34.81 66.26 35.59 68.81 36.62 C73.58 38.64 77.87 41.26 82.25 44 C82.94 44.43 83.62 44.85 84.33 45.3 C87.26 47.15 90.02 49.02 92.73 51.21 C94.87 52.9 96.53 53.76 99.06 54.69 C105.35 57.34 110.9 61.5 116 66 C116.33 66.99 116.66 67.98 117 69 C116.67 69.66 116.34 70.32 116 71 C112.02 70.48 110.22 69.61 107.44 66.75 C96.26 56.4 82.27 48.87 68.89 41.78 C64.05 39.21 59.51 36.4 54.98 33.31 C52.76 31.84 50.49 30.62 48.06 29.5 C44.77 27.91 41.62 26.22 38.5 24.31 C33.84 21.46 29.09 18.82 24.31 16.19 C18.29 12.86 12.3 9.49 6.38 6 C5.73 5.63 5.08 5.25 4.42 4.87 C2.91 3.97 1.45 2.99 0 2 C0 1.34 0 0.68 0 0 Z " fill="#EA5D55" transform="translate(576,306)"/>
<path d="M0 0 C0.99 0.33 1.98 0.66 3 1 C3.02 17.67 3.04 34.34 3.05 51.02 C3.06 58.76 3.06 66.5 3.08 74.24 C3.09 80.98 3.09 87.73 3.09 94.47 C3.1 98.04 3.1 101.62 3.11 105.19 C3.11 109.17 3.11 113.15 3.11 117.14 C3.12 118.33 3.12 119.52 3.12 120.75 C3.12 121.83 3.12 122.91 3.12 124.02 C3.12 124.96 3.12 125.91 3.12 126.88 C3 129 3 129 2 130 C1.97 131.41 2 132.83 2.07 134.24 C2.13 135.6 2.13 135.6 2.19 136.97 C2.24 137.95 2.29 138.93 2.34 139.94 C2.39 140.94 2.43 141.94 2.48 142.96 C2.63 146.16 2.78 149.36 2.94 152.56 C3.04 154.73 3.14 156.89 3.24 159.05 C3.49 164.37 3.74 169.68 4 175 C4.66 175 5.32 175 6 175 C6.33 176.98 6.66 178.96 7 181 C6.34 181.33 5.68 181.66 5 182 C4.57 180.86 4.57 180.86 4.12 179.69 C3.04 176.85 3.04 176.85 1 174 C0.7 171.47 0.7 171.47 0.62 168.49 C0.59 167.42 0.55 166.35 0.52 165.25 C0.49 164.14 0.46 163.02 0.44 161.88 C0.38 159.66 0.31 157.45 0.25 155.24 C0.22 154.26 0.2 153.28 0.17 152.27 C0.25 150.03 0.25 150.03 -1 149 C-1.08 147.08 -1.1 145.15 -1.08 143.22 C-1.08 141.97 -1.07 140.71 -1.06 139.42 C-1.05 138.02 -1.03 136.61 -1.02 135.21 C-1.01 133.74 -1 132.27 -0.99 130.8 C-0.97 126.81 -0.93 122.81 -0.9 118.81 C-0.87 114.64 -0.84 110.46 -0.81 106.29 C-0.75 98.38 -0.69 90.47 -0.63 82.57 C-0.55 73.56 -0.49 64.56 -0.42 55.56 C-0.29 37.04 -0.15 18.52 0 0 Z " fill="#F29D97" transform="translate(392,683)"/>
<path d="M0 0 C0.06 1 0.12 2 0.18 3.03 C0.27 4.32 0.35 5.61 0.44 6.94 C0.52 8.23 0.6 9.51 0.68 10.84 C0.65 13.86 0.65 13.86 2 15 C2.1 16.4 2.13 17.81 2.13 19.22 C2.13 20.07 2.14 20.92 2.14 21.79 C2.13 22.69 2.13 23.58 2.12 24.5 C2.13 25.39 2.13 26.29 2.14 27.21 C2.14 28.06 2.13 28.91 2.13 29.78 C2.13 30.57 2.13 31.35 2.13 32.16 C2 34 2 34 1 35 C0.9 36.87 0.87 38.74 0.86 40.6 C0.86 41.83 0.85 43.05 0.84 44.32 C0.84 45.69 0.84 47.07 0.84 48.45 C0.84 49.89 0.83 51.34 0.83 52.79 C0.81 56.79 0.81 60.79 0.8 64.79 C0.79 69.1 0.78 73.4 0.76 77.71 C0.74 85.18 0.72 92.64 0.71 100.11 C0.69 110.91 0.66 121.7 0.63 132.5 C0.58 150.01 0.54 167.52 0.5 185.04 C0.46 202.06 0.42 219.07 0.37 236.09 C0.37 237.14 0.37 238.19 0.36 239.27 C0.35 244.53 0.34 249.78 0.32 255.04 C0.21 298.69 0.1 342.35 0 386 C-0.33 386 -0.66 386 -1 386 C-1 385.21 -1 384.41 -1.01 383.59 C-1.11 336.5 -1.22 289.41 -1.33 242.33 C-1.34 236.67 -1.36 231.02 -1.37 225.37 C-1.38 224.24 -1.38 223.12 -1.38 221.96 C-1.42 203.73 -1.47 185.5 -1.5 167.28 C-1.55 148.58 -1.59 129.88 -1.64 111.18 C-1.67 99.64 -1.69 88.1 -1.72 76.56 C-1.73 68.64 -1.75 60.73 -1.77 52.82 C-1.79 48.26 -1.8 43.69 -1.8 39.12 C-1.81 34.94 -1.82 30.76 -1.84 26.58 C-1.84 25.07 -1.84 23.56 -1.84 22.05 C-1.85 14.97 -1.87 8.01 -3 1 C-1 0 -1 0 0 0 Z " fill="#F29D97" transform="translate(140,656)"/>
<path d="M0 0 C1.62 2.86 2.25 4.9 2.23 8.18 C2.24 9.01 2.24 9.84 2.24 10.7 C2.23 11.61 2.22 12.52 2.21 13.46 C2.21 14.43 2.21 15.41 2.21 16.41 C2.2 19.69 2.18 22.98 2.16 26.26 C2.15 28.62 2.14 30.98 2.13 33.33 C2.11 40.53 2.06 47.72 2.01 54.91 C1.99 58.44 1.97 61.96 1.95 65.49 C1.84 84.27 1.7 103.05 1.55 121.83 C1.49 129.73 1.43 137.63 1.37 145.53 C1.25 161.69 1.13 177.84 1 194 C0.01 193.67 -0.98 193.34 -2 193 C-2.05 168.43 -2.08 143.85 -2.1 119.28 C-2.11 107.87 -2.13 96.46 -2.15 85.05 C-2.17 75.11 -2.18 65.17 -2.19 55.22 C-2.19 49.96 -2.2 44.69 -2.21 39.42 C-2.23 34.47 -2.23 29.52 -2.23 24.56 C-2.23 22.74 -2.23 20.92 -2.24 19.1 C-2.25 16.62 -2.25 14.14 -2.24 11.66 C-2.25 10.93 -2.25 10.21 -2.26 9.46 C-2.24 5.81 -2.01 3.11 0 0 Z " fill="#F6E8E9" transform="translate(395,490)"/>
<path d="M0 0 C2.31 0.66 4.62 1.32 7 2 C3.98 5.32 0.97 7.31 -2.99 9.39 C-3.56 9.7 -4.14 10 -4.73 10.32 C-6.59 11.3 -8.45 12.28 -10.31 13.25 C-11.59 13.92 -12.86 14.6 -14.14 15.27 C-16.63 16.59 -19.13 17.9 -21.63 19.22 C-24.43 20.7 -27.23 22.2 -30.01 23.73 C-30.69 24.1 -31.38 24.47 -32.08 24.86 C-33.79 25.8 -35.5 26.74 -37.21 27.68 C-39.86 28.93 -42.12 29.59 -45 30 C-45 30.66 -45 31.32 -45 32 C-51.11 37.1 -57.48 40.33 -64.88 43.06 C-67.17 43.8 -67.17 43.8 -68 46 C-70.44 45.62 -70.44 45.62 -73 45 C-73.33 44.34 -73.66 43.68 -74 43 C-72.59 42.18 -71.17 41.37 -69.75 40.56 C-68.57 39.88 -68.57 39.88 -67.36 39.19 C-65.2 38.1 -63.34 37.53 -61 37 C-56.8 34.74 -52.8 32.06 -49.64 28.45 C-47.58 26.63 -45.99 26.32 -43.31 25.81 C-42.5 25.65 -41.7 25.5 -40.86 25.33 C-39.94 25.17 -39.94 25.17 -39 25 C-39 24.34 -39 23.68 -39 23 C-36.76 21.48 -36.76 21.48 -33.69 19.75 C-32.59 19.13 -31.49 18.5 -30.36 17.86 C-26.48 15.71 -22.59 13.59 -18.68 11.49 C-15.05 9.47 -11.52 7.3 -8 5.1 C-6 4 -6 4 -4 4 C-4 3.34 -4 2.68 -4 2 C-2.68 2 -1.36 2 0 2 C0 1.34 0 0.68 0 0 Z " fill="#A1D1E9" transform="translate(751,937)"/>
<path d="M0 0 C1.32 0.66 2.64 1.32 4 2 C4.8 26.16 4.8 26.16 -2 34 C-2.73 34.92 -3.47 35.84 -4.23 36.79 C-6.44 39.57 -8.66 42.33 -11 45 C-11.33 45 -11.66 45 -12 45 C-12.14 39.97 -11.66 35.48 -10.62 30.56 C-10.49 29.91 -10.35 29.25 -10.21 28.57 C-9.5 25.18 -8.73 21.8 -7.88 18.44 C-6.95 15.05 -6.95 15.05 -6.5 11.75 C-5.6 6.81 -3.18 3.82 0 0 Z " fill="#FBD944" transform="translate(99,826)"/>
<path d="M0 0 C0.61 0.16 1.21 0.31 1.84 0.47 C6.51 1.56 10.41 2.13 15.19 1.44 C21.25 0.64 25 2.59 29.94 6.06 C30.96 7.02 30.96 7.02 32 8 C32 8.66 32 9.32 32 10 C33.95 9.72 33.95 9.72 35.94 9.44 C40.81 8.88 45.16 9.31 50 10 C50.39 11.45 50.76 12.91 51.12 14.38 C51.33 15.19 51.54 16 51.76 16.84 C51.84 17.55 51.92 18.26 52 19 C51.34 19.66 50.68 20.32 50 21 C49.24 20.71 48.47 20.42 47.69 20.12 C44.65 19.2 41.94 18.66 38.81 18.19 C33.61 17.3 29.34 15.52 24.62 13.22 C22.24 12.11 19.95 11.31 17.44 10.56 C10.97 8.52 4.62 5.01 0 0 Z " fill="#FBD947" transform="translate(105,1120)"/>
<path d="M0 0 C-3.04 4.41 -6.41 6.62 -11.12 8.94 C-12.48 9.63 -13.83 10.33 -15.18 11.02 C-15.84 11.36 -16.5 11.7 -17.17 12.04 C-20.38 13.72 -23.45 15.61 -26.54 17.5 C-38.97 25.08 -38.97 25.08 -45.31 28.12 C-48.01 29.42 -50.34 30.9 -52.75 32.69 C-55.56 34.69 -56.8 35.37 -60 36 C-60.66 35.01 -61.32 34.02 -62 33 C-58.63 29.1 -54.95 27.31 -50.38 25.19 C-44.53 22.38 -39.26 19.32 -34.03 15.46 C-30.96 13.25 -27.64 11.75 -24.21 10.18 C-19.2 7.8 -14.9 4.86 -10.49 1.49 C-7.11 -0.53 -3.68 -1.84 0 0 Z " fill="#95D7F3" transform="translate(933,836)"/>
<path d="M0 0 C0.66 0.33 1.32 0.66 2 1 C1.96 5.11 1.89 9.22 1.79 13.32 C1.76 14.72 1.74 16.11 1.73 17.5 C1.55 34.06 1.55 34.06 -3 40 C-4.32 40.69 -5.65 41.36 -7 42 C-7.81 44.05 -7.81 44.05 -8 46 C-10.6 42.1 -10.15 38.53 -10 34 C-10.66 34.66 -11.32 35.32 -12 36 C-11.61 33.25 -11.2 31.3 -9.65 28.98 C-7.28 24.7 -6.2 20.2 -4.94 15.5 C-4.43 13.63 -3.92 11.77 -3.4 9.91 C-3.18 9.08 -2.96 8.26 -2.73 7.42 C-1.96 4.87 -1.02 2.45 0 0 Z " fill="#FBD943" transform="translate(130,691)"/>
<path d="M0 0 C0.66 0.66 1.32 1.32 2 2 C3.32 1.34 4.64 0.68 6 0 C9.34 5.43 8.54 11.87 8 18 C6.45 23.98 3.64 29.05 0 34 C-0.99 33.67 -1.98 33.34 -3 33 C-3.09 29.38 -3.14 25.75 -3.19 22.12 C-3.21 21.11 -3.24 20.1 -3.26 19.05 C-3.33 12.19 -2.38 6.45 0 0 Z " fill="#FBD944" transform="translate(104,787)"/>
<path d="M0 0 C-3.08 3.67 -5.25 4.57 -10 5 C-10.33 5.99 -10.66 6.98 -11 8 C-13.21 9.47 -13.21 9.47 -16.1 11 C-17.15 11.55 -18.2 12.11 -19.28 12.69 C-20.38 13.27 -21.49 13.84 -22.62 14.44 C-24.78 15.58 -26.94 16.73 -29.1 17.87 C-30.13 18.41 -31.15 18.95 -32.2 19.51 C-34.5 20.73 -36.76 22 -39.01 23.31 C-41.42 24.67 -43.58 25.71 -46.19 26.56 C-49.24 27.64 -51.46 28.95 -54 31 C-54.66 31 -55.32 31 -56 31 C-56.33 31.99 -56.66 32.98 -57 34 C-60.47 34.5 -60.47 34.5 -64 35 C-63.67 34.34 -63.34 33.68 -63 33 C-62.01 33 -61.02 33 -60 33 C-59.77 32.24 -59.54 31.47 -59.31 30.68 C-57.69 27.36 -56.34 26.69 -53.06 25.06 C-52.08 24.56 -51.09 24.05 -50.07 23.54 C-49.06 23.03 -48.04 22.52 -47 22 C-45.14 21.01 -43.29 20.01 -41.44 19 C-40.53 18.51 -39.63 18.02 -38.7 17.51 C-36.01 16.01 -33.38 14.42 -30.75 12.81 C-27.99 11.13 -25.32 9.63 -22.31 8.44 C-19.61 7.27 -17.81 6.23 -15.5 4.5 C-10.69 0.94 -6.12 -2.04 0 0 Z " fill="#D1CFD9" transform="translate(872,872)"/>
<path d="M0 0 C1.65 0.33 3.3 0.66 5 1 C6.18 6.98 5.88 12.2 4.81 18.19 C4.64 19.2 4.64 19.2 4.47 20.24 C3.53 25.07 1.9 28.14 -1 32 C-2.65 31.67 -4.3 31.34 -6 31 C-6.21 24.96 -5.51 19.68 -4.12 13.81 C-3.95 13.03 -3.78 12.25 -3.6 11.45 C-2.69 7.47 -1.66 3.74 0 0 Z " fill="#FCD943" transform="translate(117,744)"/>
<path d="M0 0 C2.25 -0.25 2.25 -0.25 5 0 C7.31 1.88 7.31 1.88 9 4 C9 4.66 9 5.32 9 6 C9.83 6.27 10.65 6.54 11.5 6.81 C13.23 7.4 13.23 7.4 15 8 C15.65 8.22 16.3 8.44 16.97 8.66 C21.48 10.25 25.04 12.28 29 15 C30.35 15.66 31.7 16.31 33.06 16.94 C35.85 18.28 37.18 19.19 39.38 21.5 C42.56 24.53 45.58 25.6 49.7 27.01 C52.09 28.04 53.39 28.97 55 31 C55 31.66 55 32.32 55 33 C57.31 33.66 59.62 34.32 62 35 C61.5 35.99 61.5 35.99 61 37 C55.33 35.34 50.87 33.42 46 30 C44.03 28.99 42.04 28.05 40.03 27.12 C38 26 38 26 35.7 24.12 C32.6 21.69 29.31 19.91 25.81 18.12 C1.87 5.6 1.87 5.6 0 0 Z " fill="#E85D55" transform="translate(516,270)"/>
<path d="M0 0 C10.21 1.8 19.74 15.38 26.18 22.9 C28.27 25.31 30.41 27.65 32.56 30 C36.32 34.15 39.75 38.44 43 43 C42.5 43.99 42.5 43.99 42 45 C36.47 41.1 31.73 36.94 27.19 31.94 C26.59 31.29 25.99 30.64 25.37 29.97 C21.06 25.26 16.92 20.43 12.86 15.52 C9.34 11.31 5.57 7.47 1.58 3.71 C0 2 0 2 0 0 Z " fill="#EFD2D4" transform="translate(570,236)"/>
<path d="M0 0 C1 3 1 3 0.06 5.19 C-0.46 6.08 -0.46 6.08 -1 7 C-0.01 7.33 0.98 7.66 2 8 C4.13 14.38 4.25 23.98 1.69 30.31 C0 33 0 33 -3 35 C-6.11 30.81 -6.37 27.47 -5.94 22.44 C-5.89 21.74 -5.84 21.04 -5.78 20.32 C-5.14 13.17 -3.21 6.43 0 0 Z " fill="#FCD943" transform="translate(71,958)"/>
<path d="M0 0 C0.99 0.66 1.98 1.32 3 2 C1.55 9.54 -4.83 15 -10.14 20.13 C-12.18 22.09 -12.18 22.09 -14.25 25 C-18.03 29.76 -23.92 32.81 -29 36 C-29.66 35.67 -30.32 35.34 -31 35 C-30.01 34.01 -29.02 33.02 -28 32 C-29.65 32.66 -31.3 33.32 -33 34 C-30.63 31.43 -28.14 29.34 -25.32 27.31 C-20.99 24.09 -17.17 20.51 -13.38 16.69 C-12.4 15.71 -12.4 15.71 -11.4 14.7 C-6.96 10.18 -3.05 5.59 0 0 Z " fill="#9BD7F1" transform="translate(1061,741)"/>
<path d="M0 0 C0.66 0.33 1.32 0.66 2 1 C-0.22 2.66 -2.45 4.3 -4.69 5.94 C-5.31 6.41 -5.94 6.87 -6.58 7.36 C-10.01 9.85 -12.65 11.61 -17 12 C-17 12.66 -17 13.32 -17 14 C-23.11 19.1 -29.48 22.33 -36.88 25.06 C-39.17 25.8 -39.17 25.8 -40 28 C-42.44 27.62 -42.44 27.62 -45 27 C-45.33 26.34 -45.66 25.68 -46 25 C-44.59 24.18 -43.17 23.37 -41.75 22.56 C-40.57 21.88 -40.57 21.88 -39.36 21.19 C-37.2 20.1 -35.34 19.53 -33 19 C-28.8 16.74 -24.8 14.06 -21.64 10.45 C-19.58 8.63 -17.99 8.32 -15.31 7.81 C-14.1 7.57 -14.1 7.57 -12.86 7.33 C-11.94 7.17 -11.94 7.17 -11 7 C-11 6.34 -11 5.68 -11 5 C-10.37 4.72 -9.75 4.45 -9.1 4.16 C-8.28 3.8 -7.47 3.44 -6.62 3.06 C-5.81 2.7 -5 2.34 -4.16 1.97 C-2.76 1.34 -1.37 0.69 0 0 Z " fill="#DACDD5" transform="translate(723,955)"/>
<path d="M0 0 C0.33 0 0.66 0 1 0 C2.72 5.99 3.39 11.46 3.44 17.69 C3.49 18.93 3.49 18.93 3.54 20.2 C3.58 24.75 3.47 26.43 0.47 30.08 C-0.34 30.71 -1.16 31.35 -2 32 C-2.99 31.67 -3.98 31.34 -5 31 C-5.54 23.44 -3.92 17 -1.97 9.77 C-1.13 6.51 -0.49 3.32 0 0 Z " fill="#FCD943" transform="translate(136,657)"/>
<path d="M0 0 C11.98 9.85 22.39 21.08 31 34 C30.01 34 29.02 34 28 34 C28 33.34 28 32.68 28 32 C27.2 31.66 27.2 31.66 26.38 31.31 C20.01 27.79 15.63 22.47 11 17 C10.04 15.91 9.07 14.82 8.11 13.73 C7.09 12.57 6.08 11.41 5.06 10.25 C4.57 9.7 4.07 9.14 3.56 8.57 C0.79 5.36 0 4.4 0 0 Z " fill="#EFD2D4" transform="translate(476,149)"/>
<path d="M0 0 C1.81 0.81 1.81 0.81 3.81 2.81 C3.81 4.13 3.81 5.45 3.81 6.81 C2.81 6.82 2.81 6.82 1.79 6.82 C-6.61 7.17 -14.13 9.75 -20.19 15.81 C-22.81 15.94 -22.81 15.94 -25.19 15.81 C-24.81 13.36 -24.55 12.13 -22.66 10.47 C-18.29 7.9 -13.9 5.7 -9.23 3.73 C-6.99 2.79 -6.99 2.79 -4.38 1 C-2.19 -0.19 -2.19 -0.19 0 0 Z " fill="#8CDAF9" transform="translate(777.1875,941.1875)"/>
<path d="M0 0 C1.68 1.6 3.04 3.06 4.3 5.02 C6.4 7.46 7.77 7.75 10.88 8.44 C15.65 9.71 17.53 11.44 21 15 C24 16.65 27.05 18.12 30.14 19.58 C33 21 33 21 36.19 23.25 C38.99 25 40.39 25.29 43.56 25.75 C46.51 26.28 47.67 26.63 49.69 28.9 C50.92 30.89 52.02 32.87 53 35 C49.12 33.26 49.12 33.26 48 30.94 C47.18 28.84 47.18 28.84 45.12 28.19 C43 27.86 43 27.86 41.06 28.62 C39 29 39 29 36.5 27.81 C34 26 34 26 32.06 23.94 C29.53 21.56 27.29 21.05 24 20 C20.19 17.8 17.51 16.24 16 12 C14.7 12.09 14.7 12.09 13.38 12.19 C9.4 11.97 7.33 11.17 4 9 C0 3.95 0 3.95 0 0 Z " fill="#F07771" transform="translate(916,500)"/>
<path d="M0 0 C2.48 3.78 2.27 7.6 2.23 11.96 C2.23 12.74 2.23 13.52 2.23 14.32 C2.23 15.98 2.22 17.63 2.21 19.29 C2.19 21.77 2.19 24.24 2.19 26.72 C2.16 36.52 1.79 46.23 1 56 C0.67 56 0.34 56 0 56 C-0.29 51.01 -0.57 46.01 -0.85 41.02 C-0.95 39.32 -1.05 37.63 -1.15 35.94 C-1.64 27.48 -2.09 19.01 -2.19 10.54 C-2.2 9.36 -2.22 8.19 -2.23 6.99 C-2.01 4.09 -1.52 2.44 0 0 Z " fill="#EFCDCE" transform="translate(395,490)"/>
<path d="M0 0 C0.5 1.48 0.5 1.48 1 3 C-5.44 3.49 -5.44 3.49 -12 4 C-12 4.33 -12 4.66 -12 5 C-20.91 5 -29.82 5 -39 5 C-39 4.67 -39 4.34 -39 4 C-41.31 3.67 -43.62 3.34 -46 3 C-45.67 2.34 -45.34 1.68 -45 1 C-44.02 1.01 -43.03 1.01 -42.02 1.02 C-38.34 1.03 -34.65 1.05 -30.97 1.05 C-29.38 1.06 -27.79 1.07 -26.21 1.08 C-17.44 1.12 -8.69 0 0 0 Z " fill="#F0BBB9" transform="translate(285,1195)"/>
<path d="M0 0 C-3.08 3.67 -5.25 4.57 -10 5 C-10.33 5.99 -10.66 6.98 -11 8 C-13.21 9.47 -13.21 9.47 -16.1 11 C-17.15 11.55 -18.2 12.11 -19.28 12.69 C-20.38 13.27 -21.49 13.84 -22.62 14.44 C-24.78 15.58 -26.94 16.73 -29.1 17.87 C-30.12 18.41 -31.14 18.94 -32.2 19.5 C-34.56 20.76 -36.85 22.09 -39.15 23.47 C-40.09 23.98 -41.03 24.48 -42 25 C-42.66 24.67 -43.32 24.34 -44 24 C-38.67 20.48 -33.38 17.09 -27.62 14.31 C-22.96 12.05 -19.27 9.82 -16.25 5.5 C-12.19 0.99 -6.04 -2.34 0 0 Z " fill="#8DD9F8" transform="translate(872,872)"/>
<path d="M0 0 C0.58 0.23 1.15 0.45 1.75 0.69 C1.01 1.13 0.28 1.58 -0.48 2.04 C-5.63 5.24 -10.07 8.26 -14.25 12.69 C-17.49 15.07 -20.22 17.07 -24.25 17.69 C-24.91 16.7 -25.57 15.71 -26.25 14.69 C-22.81 10.69 -18.93 8.82 -14.25 6.62 C-8.88 4.15 -8.88 4.15 -4 0.88 C-2.25 -0.31 -2.25 -0.31 0 0 Z " fill="#A5D3EA" transform="translate(897.25,854.3125)"/>
<path d="M0 0 C4 2.42 6.68 4.62 9.57 8.36 C11.28 10.33 13.18 11.9 15.19 13.56 C18.2 16.12 20.04 18.04 21 22 C16.75 19.71 13.31 17.43 9.68 14.22 C7.66 12.75 5.62 11.89 3.31 10.94 C-0.12 9.52 -2.18 8.4 -4 5 C1 7 1 7 6 9 C3.73 5.63 3.73 5.63 0 4 C-0.33 3.01 -0.66 2.02 -1 1 C-0.67 0.67 -0.34 0.34 0 0 Z " fill="#593533" transform="translate(699,368)"/>
<path d="M0 0 C0.66 0.33 1.32 0.66 2 1 C-6.46 7.83 -6.46 7.83 -10.75 10.19 C-14.03 11.88 -14.03 11.88 -16.62 14.25 C-19.36 16.26 -20.69 16.38 -24 16 C-24 15.01 -24 14.02 -24 13 C-22.36 11.68 -22.36 11.68 -20.19 10.44 C-19.48 10.02 -18.77 9.61 -18.04 9.18 C-17.37 8.79 -16.69 8.4 -16 8 C-15.01 7.34 -14.02 6.68 -13 6 C-12.01 6 -11.02 6 -10 6 C-10 5.34 -10 4.68 -10 4 C-9.2 3.85 -9.2 3.85 -8.38 3.69 C-5.8 3.03 -5.8 3.03 -2.88 1.38 C-1.45 0.69 -1.45 0.69 0 0 Z " fill="#B5D3E6" transform="translate(961,817)"/>
<path d="M0 0 C0.06 1 0.12 2 0.18 3.03 C0.27 4.32 0.35 5.61 0.44 6.94 C0.52 8.23 0.6 9.51 0.68 10.84 C0.65 13.86 0.65 13.86 2 15 C2.09 16.42 2.11 17.84 2.1 19.25 C2.09 20.11 2.09 20.96 2.09 21.84 C2.08 22.74 2.07 23.64 2.06 24.56 C2.06 25.46 2.05 26.37 2.05 27.29 C2.04 29.53 2.02 31.76 2 34 C0.51 34.5 0.51 34.5 -1 35 C-1.03 34.25 -1.05 33.51 -1.08 32.74 C-1.19 29.33 -1.32 25.91 -1.44 22.5 C-1.48 21.33 -1.52 20.15 -1.56 18.95 C-1.78 12.9 -2.12 6.98 -3 1 C-1 0 -1 0 0 0 Z " fill="#EF5C54" transform="translate(140,656)"/>
<path d="M0 0 C0.66 0 1.32 0 2 0 C1.42 10.87 -0.02 19.88 -4 30 C-4.99 29.67 -5.98 29.34 -7 29 C-6.62 27.49 -6.62 27.49 -6.23 25.96 C-4.06 17.33 -1.96 8.68 0 0 Z " fill="#FBDD59" transform="translate(82,888)"/>
<path d="M0 0 C4.38 2.61 7.35 5.36 10.58 9.29 C17.31 17.42 25.97 24.19 34 31 C33.34 31.66 32.68 32.32 32 33 C27.2 28.78 22.52 24.52 18 20 C16.13 18.42 14.26 16.87 12.36 15.33 C11.91 14.89 11.46 14.45 11 14 C11 13.34 11 12.68 11 12 C10.34 12 9.68 12 9 12 C7.34 10.39 7.34 10.39 5.5 8.25 C4.89 7.55 4.28 6.86 3.66 6.14 C2.12 4.16 1.03 2.28 0 0 Z " fill="#4A2D2C" transform="translate(487,174)"/>
<path d="M0 0 C0.33 0.66 0.66 1.32 1 2 C2.65 2 4.3 2 6 2 C5.34 2.66 4.68 3.32 4 4 C3.01 4 2.02 4 1 4 C1 4.99 1 5.98 1 7 C-0.56 7.79 -2.12 8.59 -3.69 9.38 C-4.56 9.82 -5.43 10.26 -6.32 10.71 C-8.85 11.93 -11.39 12.99 -14 14 C-13.01 12.68 -12.02 11.36 -11 10 C-14.96 11.98 -14.96 11.98 -19 14 C-17.71 10.13 -16.45 9.93 -12.88 8.12 C-8.26 5.72 -4.15 3.13 0 0 Z " fill="#9CD6F0" transform="translate(972,808)"/>
<path d="M0 0 C0 9.24 0 18.48 0 28 C-0.99 28 -1.98 28 -3 28 C-3 19.09 -3 10.18 -3 1 C-1 0 -1 0 0 0 Z " fill="#F0C2C1" transform="translate(1087,659)"/>
<path d="M0 0 C0.66 0.33 1.32 0.66 2 1 C-3.53 5.22 -8.5 8.62 -15.29 10.39 C-17.22 10.85 -17.22 10.85 -18 13 C-20.44 12.62 -20.44 12.62 -23 12 C-23.33 11.34 -23.66 10.68 -24 10 C-18.62 6.69 -14.39 4.63 -8 4 C-5.83 3.13 -5.83 3.13 -4 2 C-1.88 0.81 -1.88 0.81 0 0 Z " fill="#D2DDE8" transform="translate(701,970)"/>
<path d="M0 0 C1.32 0.33 2.64 0.66 4 1 C3.01 1 2.02 1 1 1 C1 1.66 1 2.32 1 3 C-0.68 4.29 -0.68 4.29 -2.88 5.62 C-3.59 6.07 -4.31 6.52 -5.05 6.98 C-7 8 -7 8 -9 8 C-9.33 8.99 -9.66 9.98 -10 11 C-15.78 14.76 -22.43 17.05 -29 19 C-25.36 14.73 -20.88 12.57 -16 10 C-14.33 9.09 -14.33 9.09 -12.63 8.16 C-3.42 3.14 -3.42 3.14 0 2 C0 1.34 0 0.68 0 0 Z " fill="#ABD3E8" transform="translate(747,939)"/>
<path d="M0 0 C7.11 1.31 14.05 3.02 21 5 C21 5.99 21 6.98 21 8 C16.19 9.6 12.71 8.12 8.25 6.25 C7.22 5.85 7.22 5.85 6.18 5.45 C4.41 4.72 2.7 3.87 1 3 C0.67 2.01 0.34 1.02 0 0 Z " fill="#E05D55" transform="translate(305,155)"/>
<path d="M0 0 C2.63 0.31 5.25 0.5 7.89 0.66 C8.59 0.77 9.28 0.88 10 1 C10.33 1.66 10.66 2.32 11 3 C2.5 6.66 2.5 6.66 -3 5 C-3.99 4.34 -4.98 3.68 -6 3 C-6 2.34 -6 1.68 -6 1 C-6.99 0.67 -7.98 0.34 -9 0 C-5.27 -2.49 -3.98 -1.64 0 0 Z " fill="#DB544D" transform="translate(291,149)"/>
<path d="M0 0 C2.98 1.33 4.92 2.74 7.12 5.12 C9.96 8.05 12.92 10.61 16.12 13.12 C23.11 18.63 23.11 18.63 26 22 C26 22.99 26 23.98 26 25 C25.11 24.24 24.23 23.47 23.31 22.69 C20.84 20.56 18.35 18.46 15.85 16.36 C15.29 15.89 14.73 15.42 14.15 14.94 C13.03 14 11.92 13.07 10.8 12.14 C6.99 8.94 3.4 5.64 0 2 C0 1.34 0 0.68 0 0 Z " fill="#5B3A39" transform="translate(625,301)"/>
<path d="M0 0 C3.48 0.45 6.2 1.54 9.31 3.06 C13.81 5.14 17.08 5.44 22 5 C22.33 4.67 22.66 4.34 23 4 C25 3.96 27 3.96 29 4 C29 4.99 29 5.98 29 7 C6.98 8.03 6.98 8.03 0 2 C0 1.34 0 0.68 0 0 Z " fill="#EF5B53" transform="translate(421,890)"/>
<path d="M0 0 C0.66 0 1.32 0 2 0 C2.33 8.25 2.66 16.5 3 25 C3.66 25 4.32 25 5 25 C5.33 26.98 5.66 28.96 6 31 C5.34 31.33 4.68 31.66 4 32 C3.71 31.24 3.42 30.47 3.12 29.69 C2.04 26.85 2.04 26.85 0 24 C-0.23 21.46 -0.23 21.46 -0.2 18.46 C-0.19 17.38 -0.18 16.31 -0.18 15.21 C-0.15 13.53 -0.15 13.53 -0.12 11.81 C-0.12 10.68 -0.11 9.55 -0.1 8.38 C-0.07 5.59 -0.04 2.79 0 0 Z " fill="#F0AAA7" transform="translate(393,833)"/>
<path d="M0 0 C-1.06 0.59 -2.12 1.18 -3.22 1.79 C-4.65 2.59 -6.07 3.39 -7.5 4.19 C-8.23 4.6 -8.96 5.01 -9.72 5.43 C-13.51 7.56 -17.24 9.74 -20.88 12.12 C-21.91 12.74 -22.94 13.36 -24 14 C-24.66 13.67 -25.32 13.34 -26 13 C-25.28 12.61 -24.56 12.22 -23.81 11.81 C-20.92 10.1 -20.92 10.1 -18.69 7.62 C-13.64 2.69 -7.29 -2.43 0 0 Z " fill="#CBCDD8" transform="translate(802,912)"/>
<path d="M0 0 C-0.52 0.38 -1.04 0.75 -1.57 1.14 C-4.84 3.53 -7.79 5.78 -10.56 8.75 C-13.66 11.61 -15.92 12.12 -20 13 C-17.16 7.63 -6.81 -3.4 0 0 Z " fill="#DFCBD1" transform="translate(1035,773)"/>
<path d="M0 0 C1.63 4.9 1.52 9.89 1 15 C-0.88 18.12 -0.88 18.12 -3 20 C-3.66 20.66 -4.32 21.32 -5 22 C-5.28 15.8 -4.23 10.07 -3 4 C-2.34 4 -1.68 4 -1 4 C-0.67 2.68 -0.34 1.36 0 0 Z " fill="#FBDD5C" transform="translate(92,849)"/>
<path d="M0 0 C0.99 0.33 1.98 0.66 3 1 C2.26 1.72 1.51 2.44 0.75 3.19 C-2.02 5.8 -2.02 5.8 -3.56 8.62 C-7.49 12.45 -12.67 13.24 -18 14 C-18.66 13.67 -19.32 13.34 -20 13 C-16.84 11.27 -14.41 10.05 -10.81 9.62 C-7.81 9.3 -7.81 9.3 -6.44 6.69 C-5.96 5.8 -5.49 4.91 -5 4 C-2.5 1.62 -2.5 1.62 0 0 Z " fill="#996464" transform="translate(655,991)"/>
<path d="M0 0 C1.32 0.33 2.64 0.66 4 1 C3.01 1.33 2.02 1.66 1 2 C0.67 1.34 0.34 0.68 0 0 Z M-1 1 C-1 1.99 -1 2.98 -1 4 C-6.69 8.67 -12.84 10.85 -20 12 C-15.16 6.31 -8.09 3 -1 1 Z " fill="#C3CDDB" transform="translate(853,879)"/>
<path d="M0 0 C0.66 0.33 1.32 0.66 2 1 C0 4 0 4 -1 5 C-0.67 5.66 -0.34 6.32 0 7 C-1.56 7.96 -3.12 8.92 -4.69 9.88 C-5.99 10.68 -5.99 10.68 -7.32 11.49 C-9.83 12.91 -12.3 14 -15 15 C-13.68 13.68 -12.36 12.36 -11 11 C-12.32 10.67 -13.64 10.34 -15 10 C-13.67 9.38 -13.67 9.38 -12.31 8.75 C-8.97 7.12 -8.97 7.12 -6.31 4.81 C-4 3 -4 3 -1 3 C-0.67 2.01 -0.34 1.02 0 0 Z " fill="#99D4EE" transform="translate(812,901)"/>
<path d="M0 0 C0.99 0 1.98 0 3 0 C3 6.6 3 13.2 3 20 C2.01 19.67 1.02 19.34 0 19 C0 12.73 0 6.46 0 0 Z " fill="#EF5E56" transform="translate(391,813)"/>
<path d="M0 0 C0.99 0 1.98 0 3 0 C3 0.66 3 1.32 3 2 C2.01 1.67 1.02 1.34 0 1 C0 0.67 0 0.34 0 0 Z M0 1 C0 1.66 0 2.32 0 3 C-12.19 13 -12.19 13 -18 13 C-16.85 9.56 -16.32 9.31 -13.31 7.56 C-10.7 6.02 -8.17 4.44 -5.69 2.69 C-3 1 -3 1 0 1 Z " fill="#BAC7D7" transform="translate(995,796)"/>
<path d="M0 0 C4.33 1.28 7.71 2.92 11.44 5.44 C14.53 7.47 17.41 9.32 20.88 10.62 C24.99 12.43 27.97 14.94 30 19 C26.65 17.92 24.71 16.76 22 14.44 C19.09 12.07 17.66 11.32 14 11 C14 10.34 14 9.68 14 9 C13.46 8.92 12.93 8.84 12.38 8.75 C9.14 7.73 6.73 6 4 4 C3.67 3.34 3.34 2.68 3 2 C2.01 1.67 1.02 1.34 0 1 C0 0.67 0 0.34 0 0 Z " fill="#F0736C" transform="translate(602,527)"/>
<path d="M0 0 C1.68 1.6 3.04 3.06 4.3 5.02 C6.4 7.46 7.77 7.75 10.88 8.44 C15.67 9.71 17.98 11.07 21 15 C21 15.66 21 16.32 21 17 C19.06 16.19 19.06 16.19 17 15 C16.67 14.01 16.34 13.02 16 12 C14.7 12.09 14.7 12.09 13.38 12.19 C9.4 11.97 7.33 11.17 4 9 C0 3.95 0 3.95 0 0 Z " fill="#F0635C" transform="translate(916,500)"/>
<path d="M0 0 C-0.66 1.32 -1.32 2.64 -2 4 C-0.68 4.33 0.64 4.66 2 5 C-0.78 7.78 -3.16 7.6 -7 8 C-7.99 8 -8.98 8 -10 8 C-7.96 2.18 -6.5 -0.53 0 0 Z " fill="#8EDAF9" transform="translate(660,994)"/>
<path d="M0 0 C3.7 -0.34 5.4 -0.48 8.38 1.88 C10 4 10 4 10 6 C12.31 6.66 14.62 7.32 17 8 C16.67 8.66 16.34 9.32 16 10 C10.39 8.35 5.6 6.68 1 3 C0.67 2.01 0.34 1.02 0 0 Z " fill="#D95B55" transform="translate(561,297)"/>
<path d="M0 0 C6.66 3.72 12.45 7.76 18 13 C17.34 13.66 16.68 14.32 16 15 C15.35 14.47 14.7 13.94 14.02 13.39 C8.38 8.78 8.38 8.78 2.38 4.69 C1.59 4.13 0.81 3.57 0 3 C0 2.01 0 1.02 0 0 Z " fill="#3C2221" transform="translate(429,125)"/>
<path d="M0 0 C3 1 3 1 5 4 C4.62 6.69 4.62 6.69 4 9 C0.62 7.81 -1.65 6.72 -4 4 C-2.68 2.68 -1.36 1.36 0 0 Z " fill="#8CDAF9" transform="translate(786,930)"/>
<path d="M0 0 C8.27 3.5 14.46 11.2 20 18 C15.92 17.48 14.13 15.42 11.38 12.5 C8.5 9.33 8.5 9.33 5 7 C5 6.34 5 5.68 5 5 C4.36 4.73 3.72 4.46 3.06 4.19 C1 3 1 3 0 0 Z " fill="#3F2423" transform="translate(595,274)"/>
<path d="M0 0 C0.99 0.5 0.99 0.5 2 1 C2.35 2.15 2.7 3.31 3.06 4.5 C5.06 10.31 9.54 13.96 14 18 C13.67 18.99 13.34 19.98 13 21 C11.39 19.47 9.78 17.92 8.19 16.38 C6.85 15.09 6.85 15.09 5.48 13.77 C2.28 10.2 0.13 6.97 -0.19 2.12 C-0.13 1.42 -0.06 0.72 0 0 Z " fill="#EF6961" transform="translate(398,865)"/>
<path d="M0 0 C2.46 3.69 2.01 4.59 1.19 8.81 C0.9 10.34 0.9 10.34 0.61 11.89 C0.31 13.43 0.31 13.43 0 15 C-0.34 17 -0.67 19 -1 21 C-1.99 21.33 -2.98 21.66 -4 22 C-3.51 14.41 -2 7.33 0 0 Z " fill="#FBDB51" transform="translate(113,746)"/>
<path d="M0 0 C0.66 1.32 1.32 2.64 2 4 C2.66 4 3.32 4 4 4 C3.89 8.1 3.76 12.21 3.62 16.31 C3.59 17.48 3.56 18.65 3.53 19.85 C3.49 20.97 3.45 22.09 3.41 23.24 C3.37 24.79 3.37 24.79 3.32 26.36 C3 29 3 29 1 32 C0.62 30.34 0.29 28.68 0 27 C0.33 26.67 0.66 26.34 1 26 C1.1 24.67 1.13 23.33 1.13 22 C1.13 21.2 1.14 20.39 1.14 19.56 C1.13 18.72 1.13 17.87 1.12 17 C1.13 16.15 1.13 15.31 1.14 14.44 C1.14 13.63 1.13 12.83 1.13 12 C1.13 11.26 1.13 10.51 1.13 9.75 C1.19 7.97 1.19 7.97 0 7 C-0.04 4.67 -0.04 2.33 0 0 Z " fill="#F1908B" transform="translate(794,655)"/>
<path d="M0 0 C0.99 0.66 1.98 1.32 3 2 C1.26 5.01 -0.12 6.73 -3.49 7.78 C-5.99 8.26 -8.48 8.68 -11 9 C-11 8.01 -11 7.02 -11 6 C-10.29 5.65 -9.58 5.3 -8.85 4.94 C-7.93 4.49 -7.01 4.03 -6.06 3.56 C-4.69 2.88 -4.69 2.88 -3.29 2.19 C-1.09 1.19 -1.09 1.19 0 0 Z " fill="#B5CADE" transform="translate(670,984)"/>
<path d="M0 0 C-1.2 3.61 -1.92 3.8 -5.18 5.52 C-6.45 6.18 -6.45 6.18 -7.74 6.87 C-8.63 7.32 -9.52 7.78 -10.44 8.25 C-11.32 8.72 -12.21 9.19 -13.12 9.68 C-18.03 12.24 -18.03 12.24 -20 13 C-20.66 12.67 -21.32 12.34 -22 12 C-4.52 0 -4.52 0 0 0 Z " fill="#8CDAF9" transform="translate(737,950)"/>
<path d="M0 0 C1.02 0.43 1.02 0.43 2.06 0.88 C5.33 2.13 8.63 3.05 12 4 C14 4.66 16 5.32 18 6 C18 6.66 18 7.32 18 8 C14.08 8.22 11.58 7.54 8 6 C5.67 5.31 3.34 4.64 1 4 C0.67 2.68 0.34 1.36 0 0 Z " fill="#472B2A" transform="translate(384,104)"/>
<path d="M0 0 C0 0.66 0 1.32 0 2 C-1.83 3.4 -1.83 3.4 -4.25 4.94 C-6.61 6.45 -8.91 7.93 -11.12 9.65 C-13.38 11.27 -15.27 11.62 -18 12 C-18 11.01 -18 10.02 -18 9 C-16.68 9.33 -15.36 9.66 -14 10 C-14 9.34 -14 8.68 -14 8 C-12.5 6.78 -12.5 6.78 -10.56 5.5 C-7.77 3.71 -7.77 3.71 -6 1 C-3 0 -3 0 0 0 Z " fill="#A8C2D5" transform="translate(773,926)"/>
<path d="M0 0 C0.66 0.33 1.32 0.66 2 1 C-2.14 6.66 -7.17 10.17 -13 14 C-13.66 13.67 -14.32 13.34 -15 13 C-11.86 8.28 -7.77 5.57 -3.14 2.45 C-1.11 1.17 -1.11 1.17 0 0 Z " fill="#B4D1E4" transform="translate(1017,781)"/>
<path d="M0 0 C3.92 1.44 7.36 3.3 10.94 5.44 C14.89 7.8 18.86 9.98 23 12 C20.92 12.55 19.16 13 17 13 C17 12.34 17 11.68 17 11 C15.68 11 14.36 11 13 11 C13 10.34 13 9.68 13 9 C12.34 9 11.68 9 11 9 C11 8.34 11 7.68 11 7 C10.01 7 9.02 7 8 7 C8 6.34 8 5.68 8 5 C6.86 4.6 6.86 4.6 5.69 4.19 C3.13 3.06 1.8 2.09 0 0 Z " fill="#EF7169" transform="translate(487,460)"/>
<path d="M0 0 C3.9 1.62 6.71 4.28 9.75 7.12 C10.26 7.59 10.76 8.06 11.29 8.54 C12.53 9.69 13.76 10.85 15 12 C14.67 12.66 14.34 13.32 14 14 C13.39 13.52 12.77 13.04 12.14 12.54 C11.33 11.91 10.52 11.28 9.69 10.62 C8.89 10 8.09 9.37 7.26 8.73 C5.55 7.42 3.79 6.19 2 5 C2 4.34 2 3.68 2 3 C1.34 3 0.68 3 0 3 C0 2.01 0 1.02 0 0 Z " fill="#432525" transform="translate(542,225)"/>
<path d="M0 0 C0 0.66 0 1.32 0 2 C-2.62 3.99 -5.53 5.54 -8.38 7.19 C-9.17 7.66 -9.96 8.14 -10.78 8.63 C-11.54 9.08 -12.3 9.52 -13.09 9.98 C-13.79 10.39 -14.49 10.8 -15.21 11.23 C-15.8 11.48 -16.39 11.74 -17 12 C-17.66 11.67 -18.32 11.34 -19 11 C-17.27 9.73 -15.54 8.46 -13.81 7.19 C-12.85 6.48 -11.89 5.77 -10.89 5.04 C-3.75 0 -3.75 0 0 0 Z " fill="#8CDAF9" transform="translate(797,915)"/>
<path d="M0 0 C-3.01 3.47 -5.51 4.97 -10 6 C-12.38 5.62 -12.38 5.62 -14 5 C-14 4.34 -14 3.68 -14 3 C-4.59 -1.78 -4.59 -1.78 0 0 Z " fill="#BCD4E5" transform="translate(872,872)"/>
<path d="M0 0 C-2.62 3.6 -4.92 6.12 -9 8 C-9.99 7.67 -10.98 7.34 -12 7 C-10.38 3.48 -8.93 1.69 -5.44 0.12 C-2 -1 -2 -1 0 0 Z " fill="#ADCDE1" transform="translate(933,836)"/>
<path d="M0 0 C4.98 1.27 7.63 3.13 11 7 C11 7.33 11 7.66 11 8 C7.44 8.42 5.93 7.96 2.69 6.25 C1.8 5.51 0.91 4.76 0 4 C0 2.68 0 1.36 0 0 Z " fill="#EF5D55" transform="translate(432,221)"/>
<path d="M0 0 C1.32 0.66 2.64 1.32 4 2 C2.28 3.16 0.55 4.3 -1.19 5.44 C-2.15 6.08 -3.11 6.71 -4.11 7.37 C-6.85 8.92 -8.9 9.6 -12 10 C-9.7 5 -7.02 3.92 -2 2 C-1.34 1.34 -0.68 0.68 0 0 Z " fill="#C6C8D4" transform="translate(917,841)"/>
<path d="M0 0 C0.66 0.33 1.32 0.66 2 1 C-0.04 2.61 -2.08 4.21 -4.12 5.81 C-4.98 6.49 -4.98 6.49 -5.85 7.18 C-14.61 14 -14.61 14 -19 14 C-18.67 13.01 -18.34 12.02 -18 11 C-16.35 10.3 -14.68 9.64 -13 9 C-10.69 7.5 -8.43 5.98 -6.19 4.38 C-5.59 3.95 -4.99 3.53 -4.38 3.1 C-2.91 2.07 -1.46 1.04 0 0 Z " fill="#93D8F4" transform="translate(1018,784)"/>
<path d="M0 0 C5.61 0 11.22 0 17 0 C17 0.66 17 1.32 17 2 C11.93 2.85 7.15 3.35 2 3 C1.34 2.01 0.68 1.02 0 0 Z " fill="#F2D2D2" transform="translate(433,447)"/>
<path d="M0 0 C0 3 0 3 -1.38 4.69 C-3 6 -3 6 -5 6 C-5.99 8.97 -6.98 11.94 -8 15 C-8.66 14.67 -9.32 14.34 -10 14 C-9.73 10.1 -9.28 8.32 -6.69 5.31 C-4.51 3.44 -2.35 1.65 0 0 Z " fill="#D39598" transform="translate(1075,722)"/>
<path d="M0 0 C3.16 1.37 3.99 1.99 6 5 C8.3 6.07 10.64 7.07 13 8 C13.66 8.33 14.32 8.66 15 9 C15 9.66 15 10.32 15 11 C12.69 10.67 10.38 10.34 8 10 C8 9.34 8 8.68 8 8 C7.13 7.97 7.13 7.97 6.25 7.94 C2.62 6.42 1.75 3.44 0 0 Z " fill="#F07069" transform="translate(803,436)"/>
<path d="M0 0 C4.83 2.41 7.7 5.86 11 10 C10.67 10.66 10.34 11.32 10 12 C2.47 7.06 2.47 7.06 0.5 2.62 C0.34 1.76 0.17 0.89 0 0 Z " fill="#805452" transform="translate(709,378)"/>
<path d="M0 0 C5.88 3.53 12.78 8.33 15 15 C11.16 13.43 8.84 10.98 6 8 C5.09 7.13 4.18 6.27 3.25 5.38 C1 3 1 3 0 0 Z " fill="#5B3938" transform="translate(521,206)"/>
<path d="M0 0 C0.66 0.33 1.32 0.66 2 1 C0 3 -2 5 -4 7 C-4.99 6.34 -5.98 5.68 -7 5 C-4.69 3.35 -2.38 1.7 0 0 Z M-4 7 C-4 7.66 -4 8.32 -4 9 C-5.68 10.32 -5.68 10.32 -7.88 11.69 C-8.59 12.15 -9.31 12.6 -10.05 13.07 C-11.02 13.53 -11.02 13.53 -12 14 C-12.66 13.67 -13.32 13.34 -14 13 C-12.71 11.99 -11.42 11 -10.12 10 C-9.41 9.44 -8.69 8.89 -7.95 8.31 C-6 7 -6 7 -4 7 Z " fill="#8ED9F7" transform="translate(925,836)"/>
<path d="M0 0 C6.32 3.43 10.53 8.51 15 14 C10.59 13.57 8.17 10.58 5.25 7.56 C4.74 7.06 4.24 6.56 3.71 6.04 C0 2.27 0 2.27 0 0 Z " fill="#5D3D3C" transform="translate(656,329)"/>
<path d="M0 0 C0.66 0.33 1.32 0.66 2 1 C0.41 2.2 -1.2 3.38 -2.81 4.56 C-3.71 5.22 -4.6 5.89 -5.52 6.57 C-6.34 7.04 -7.16 7.51 -8 8 C-8.99 7.67 -9.98 7.34 -11 7 C-11 6.01 -11 5.02 -11 4 C-10.48 3.9 -9.97 3.79 -9.44 3.69 C-6.75 2.99 -6.75 2.99 -3.38 1.38 C-2.26 0.92 -1.15 0.47 0 0 Z " fill="#91D7F5" transform="translate(701,970)"/>
<path d="M0 0 C0 0.66 0 1.32 0 2 C0.66 2.33 1.32 2.66 2 3 C-1.3 4.32 -4.6 5.64 -8 7 C-8 6.01 -8 5.02 -8 4 C-2.74 0 -2.74 0 0 0 Z " fill="#BBD4E5" transform="translate(704,966)"/>
<path d="M0 0 C0.66 0 1.32 0 2 0 C2 4.29 2 8.58 2 13 C1.01 12.67 0.02 12.34 -1 12 C-0.72 11.04 -0.72 11.04 -0.44 10.06 C-0.29 9.38 -0.15 8.7 0 8 C-0.33 7.67 -0.66 7.34 -1 7 C-1.12 4 -1.12 4 -1 1 C-0.67 0.67 -0.34 0.34 0 0 Z " fill="#EF645D" transform="translate(392,496)"/>
<path d="M0 0 C2.5 3.76 1.96 4.87 1.12 9.19 C0.92 10.27 0.72 11.36 0.51 12.48 C0.34 13.31 0.17 14.14 0 15 C-0.99 14.67 -1.98 14.34 -3 14 C-2.01 9.38 -1.02 4.76 0 0 Z " fill="#FBDB51" transform="translate(122,706)"/>
<path d="M0 0 C0.33 0 0.66 0 1 0 C1.03 2.35 1.05 4.71 1.06 7.06 C1.07 8.37 1.09 9.68 1.1 11.04 C1 14.82 0.61 18.28 0 22 C-2.33 18.71 -1.97 16.17 -1.36 12.3 C-0.95 9.71 -0.69 7.12 -0.44 4.5 C-0.35 3.64 -0.27 2.79 -0.18 1.91 C-0.12 1.28 -0.06 0.65 0 0 Z " fill="#F7BE72" transform="translate(138,635)"/>
<path d="M0 0 C1.65 0.33 3.3 0.66 5 1 C5 2.32 5 3.64 5 5 C2.69 4.67 0.38 4.34 -2 4 C-1.34 2.68 -0.68 1.36 0 0 Z " fill="#8CDAF9" transform="translate(739,957)"/>
<path d="M0 0 C0.66 0.33 1.32 0.66 2 1 C0.57 2.2 -0.87 3.38 -2.31 4.56 C-3.51 5.55 -3.51 5.55 -4.74 6.57 C-5.86 7.28 -5.86 7.28 -7 8 C-7.99 7.67 -8.98 7.34 -10 7 C-10 6.01 -10 5.02 -10 4 C-9.2 3.85 -9.2 3.85 -8.38 3.69 C-5.8 3.03 -5.8 3.03 -2.88 1.38 C-1.45 0.69 -1.45 0.69 0 0 Z " fill="#F5D8D8" transform="translate(961,817)"/>
<path d="M0 0 C1.91 3.17 2.16 5.11 1.62 8.75 C1.51 9.55 1.4 10.35 1.29 11.17 C1.19 11.78 1.1 12.38 1 13 C0.01 12.67 -0.98 12.34 -2 12 C-1.86 10.19 -1.71 8.37 -1.56 6.56 C-1.48 5.55 -1.4 4.54 -1.32 3.5 C-1 1 -1 1 0 0 Z " fill="#F1C7C6" transform="translate(1076,711)"/>
<path d="M0 0 C0.33 0.99 0.66 1.98 1 3 C-8.41 4.33 -8.41 4.33 -13 3 C-10.62 0.62 -9.76 0.66 -6.5 0.38 C-5.71 0.3 -4.91 0.23 -4.09 0.15 C-2.73 0.05 -1.37 0 0 0 Z " fill="#F3C6C5" transform="translate(285,1195)"/>
<path d="M0 0 C1.45 0.03 1.45 0.03 2.94 0.06 C2.94 1.05 2.94 2.04 2.94 3.06 C-2.67 3.06 -8.28 3.06 -14.06 3.06 C-14.06 2.73 -14.06 2.4 -14.06 2.06 C-13.35 2 -12.64 1.94 -11.91 1.88 C-10.53 1.75 -10.53 1.75 -9.12 1.62 C-8.21 1.54 -7.29 1.46 -6.35 1.38 C-3.25 0.95 -3.41 0.07 0 0 Z " fill="#F1948E" transform="translate(447.0625,893.9375)"/>
<path d="M0 0 C4.66 2.82 7.75 5.6 11 10 C11 10.66 11 11.32 11 12 C9 12 9 12 7.34 10.39 C6.74 9.68 6.13 8.98 5.5 8.25 C4.89 7.55 4.28 6.86 3.66 6.14 C2.12 4.16 1.03 2.28 0 0 Z " fill="#845A58" transform="translate(487,174)"/>
<path d="M0 0 C0.33 1.32 0.66 2.64 1 4 C-0.98 4.33 -2.96 4.66 -5 5 C-5 5.66 -5 6.32 -5 7 C-6.65 6.67 -8.3 6.34 -10 6 C-8.65 3.29 -7.19 3.04 -4.44 1.88 C-3.61 1.52 -2.78 1.17 -1.93 0.8 C-1.3 0.54 -0.66 0.27 0 0 Z " fill="#F44B44" transform="translate(471,889)"/>
<path d="M0 0 C0 0.66 0 1.32 0 2 C-1.56 2.79 -3.12 3.59 -4.69 4.38 C-5.99 5.04 -5.99 5.04 -7.32 5.71 C-9.85 6.93 -12.39 7.99 -15 9 C-10.94 4.57 -6.34 0 0 0 Z " fill="#85D7F9" transform="translate(973,813)"/>
<path d="M0 0 C3.59 1.33 6.75 2.96 10 5 C9.67 5.99 9.34 6.98 9 8 C7.68 7.24 6.37 6.47 5.06 5.69 C4.33 5.26 3.6 4.83 2.85 4.39 C1 3 1 3 0 0 Z " fill="#EF5C54" transform="translate(981,541)"/>
<path d="M0 0 C3.32 0.55 6.16 1.14 9 3 C10.25 5.12 10.25 5.12 11 7 C6.77 5.69 2.93 4.06 -1 2 C-0.67 1.34 -0.34 0.68 0 0 Z " fill="#F07A74" transform="translate(828,452)"/>
<path d="M0 0 C1.23 0.15 1.23 0.15 2.48 0.31 C3.42 0.43 3.42 0.43 4.38 0.56 C4.38 1.22 4.38 1.88 4.38 2.56 C-0.03 3.66 -4.11 3.64 -8.62 3.56 C-7.96 3.23 -7.31 2.9 -6.62 2.56 C-6.62 1.9 -6.62 1.24 -6.62 0.56 C-4.1 -0.7 -2.77 -0.36 0 0 Z " fill="#653F3E" transform="translate(306.625,108.4375)"/>
<path d="M0 0 C6.98 1.55 10.97 2.96 15 9 C11.32 7.63 8.05 5.96 4.69 3.94 C3.8 3.41 2.92 2.88 2.01 2.34 C1.35 1.9 0.68 1.46 0 1 C0 0.67 0 0.34 0 0 Z " fill="#FBDE5D" transform="translate(105,1120)"/>
<path d="M0 0 C0.66 0.33 1.32 0.66 2 1 C2.05 2.46 2.09 3.92 2.12 5.38 C2.15 6.19 2.17 7 2.2 7.84 C2 10 2 10 0 12 C-0.66 11.67 -1.32 11.34 -2 11 C-1.86 9.54 -1.71 8.08 -1.56 6.62 C-1.48 5.81 -1.4 5 -1.32 4.16 C-1 2 -1 2 0 0 Z " fill="#F1B1AF" transform="translate(1081,693)"/>
<path d="M0 0 C0.33 3.63 0.66 7.26 1 11 C0.34 11 -0.32 11 -1 11 C-2.6 7.49 -3.22 4.86 -3 1 C-1 0 -1 0 0 0 Z " fill="#EF5850" transform="translate(140,656)"/>
<path d="M0 0 C6.1 2.07 9.16 4.87 13 10 C8.53 8.6 6.23 6.32 3 3 C2.01 2.67 1.02 2.34 0 2 C0 1.34 0 0.68 0 0 Z " fill="#EF5F57" transform="translate(731,601)"/>
<path d="M0 0 C0 0.99 0 1.98 0 3 C-0.99 2.34 -1.98 1.68 -3 1 C-5.02 0.62 -5.02 0.62 -7.12 0.5 C-8.4 0.33 -9.68 0.17 -11 0 C-11.33 -0.66 -11.66 -1.32 -12 -2 C-7.07 -3.64 -4.46 -2.19 0 0 Z " fill="#F0BEBD" transform="translate(919,500)"/>
<path d="M0 0 C0.33 0.99 0.66 1.98 1 3 C-5.44 3.5 -5.44 3.5 -12 4 C-12 3.34 -12 2.68 -12 2 C-10.38 1.66 -8.75 1.33 -7.12 1 C-6.22 0.81 -5.32 0.63 -4.38 0.44 C-2 0 -2 0 0 0 Z " fill="#341F1E" transform="translate(336,99)"/>
<path d="M0 0 C0.33 0.66 0.66 1.32 1 2 C2.65 2 4.3 2 6 2 C3.65 4.35 2.04 4.73 -1.12 5.62 C-2.04 5.89 -2.95 6.15 -3.88 6.41 C-4.58 6.61 -5.28 6.8 -6 7 C-4.13 4.47 -2.28 2.17 0 0 Z " fill="#F4E7E8" transform="translate(972,808)"/>
<path d="M0 0 C4.22 0.53 6.54 1.88 9.81 4.56 C10.6 5.2 11.39 5.84 12.21 6.5 C12.8 7 13.39 7.49 14 8 C13.01 8.33 12.02 8.66 11 9 C8.81 7.64 8.81 7.64 6.44 5.69 C5.65 5.05 4.87 4.42 4.06 3.76 C2 2 2 2 0 0 Z " fill="#EF5F57" transform="translate(573,510)"/>
<path d="M0 0 C3.96 0.57 6.67 1.81 10 4 C9.67 4.66 9.34 5.32 9 6 C5.6 4.94 2.99 3.99 0 2 C0 1.34 0 0.68 0 0 Z " fill="#EF5750" transform="translate(869,477)"/>
<path d="M0 0 C3.19 0 3.19 0 7 1 C9.1 3.46 10.57 6.11 12 9 C8.11 7.26 8.11 7.26 7.12 4.94 C6.57 3.98 6.57 3.98 6 3 C2.94 2.18 2.94 2.18 0 2 C0 1.34 0 0.68 0 0 Z " fill="#F1A8A4" transform="translate(781,424)"/>
<path d="M0 0 C0.99 0 1.98 0 3 0 C3 0.66 3 1.32 3 2 C3.9 2.15 3.9 2.15 4.81 2.31 C7.28 3.09 8.32 4.07 10 6 C9.01 6.33 8.02 6.66 7 7 C5.18 6.07 5.18 6.07 3.31 4.69 C2.38 4.01 2.38 4.01 1.43 3.32 C0.96 2.89 0.48 2.45 0 2 C0 1.34 0 0.68 0 0 Z " fill="#F06159" transform="translate(739,401)"/>
<path d="M0 0 C0.33 0.99 0.66 1.98 1 3 C1.66 3 2.32 3 3 3 C2.67 6.3 2.34 9.6 2 13 C1.34 13 0.68 13 0 13 C0 8.71 0 4.42 0 0 Z " fill="#F24841" transform="translate(141,260)"/>
<path d="M0 0 C3.94 1.67 6.79 4.23 10 7 C9.34 7.66 8.68 8.32 8 9 C6.66 8.07 5.33 7.13 4 6.19 C3.26 5.67 2.51 5.14 1.75 4.61 C1.17 4.08 0.6 3.55 0 3 C0 2.01 0 1.02 0 0 Z " fill="#442524" transform="translate(447,139)"/>
<path d="M0 0 C0.59 0.2 1.19 0.4 1.8 0.61 C0.35 1.61 -1.11 2.61 -2.57 3.61 C-3.79 4.44 -3.79 4.44 -5.04 5.3 C-7.2 6.61 -7.2 6.61 -9.2 6.61 C-7.85 2.56 -4.56 -0.81 0 0 Z " fill="#C1D3E2" transform="translate(897.19921875,854.390625)"/>
<path d="M0 0 C1.71 1.63 3.13 3.19 4.5 5.12 C5.95 7.29 5.95 7.29 9 8 C9 8.99 9 9.98 9 11 C5.37 9.99 4.07 9.08 1.69 6.06 C0 3 0 3 0 0 Z " fill="#F0544D" transform="translate(916,500)"/>
<path d="M0 0 C4.17 0.52 6.25 1.71 9.31 4.56 C10.01 5.2 10.71 5.84 11.43 6.5 C11.95 7 12.46 7.49 13 8 C12.01 8.33 11.02 8.66 10 9 C7.52 7.38 7.52 7.38 4.81 5.12 C3.91 4.39 3.01 3.65 2.08 2.88 C1.39 2.26 0.71 1.64 0 1 C0 0.67 0 0.34 0 0 Z " fill="#EF5D55" transform="translate(510,473)"/>
<path d="M0 0 C2.97 1.65 5.94 3.3 9 5 C9 5.99 9 6.98 9 8 C4.57 6.61 2.13 4.39 -1 1 C-0.67 0.67 -0.34 0.34 0 0 Z " fill="#4A2B2A" transform="translate(429,125)"/>
</svg>
